<svg width="49" height="48" viewBox="0 0 49 48" fill="none" xmlns="http://www.w3.org/2000/svg">
<g clip-path="url(#clip0_43_32)">
<path d="M8.18292 0.0187777C6.7638 0.140954 5.82399 0.488683 5.50445 1.01498C5.2601 1.4097 5.2695 1.98298 5.51385 2.3965C5.62663 2.57507 6.67922 3.67465 7.86339 4.84002C9.03815 6.00539 10.0719 7.09557 10.1565 7.27414C10.3727 7.70645 10.4385 8.58048 10.2975 9.03159C10.0156 9.92441 9.35769 10.3755 8.37089 10.3849C7.39348 10.3849 7.12093 10.1875 4.7526 7.80044C3.58723 6.63506 2.47825 5.59187 2.29029 5.48849C1.31288 4.98099 0.457651 5.60127 0.138114 7.03919C-0.0686447 7.9508 -0.0310521 9.89623 0.213299 10.8078C0.861771 13.2137 2.39367 15.1216 4.56464 16.2117C5.51385 16.691 6.32209 16.926 7.46866 17.067C8.57765 17.1985 9.76181 17.0952 10.8144 16.7662L11.4535 16.5689L12.647 17.7624L13.8312 18.9466L13.6714 19.5763C13.5681 19.9616 13.5023 20.5725 13.4929 21.1458C13.4741 23.6269 12.7598 24.905 9.53625 28.185L7.60964 30.1492L7.11154 30.027C6.52885 29.886 5.92737 29.9518 5.42927 30.2056C4.92177 30.4687 0.946354 34.5005 0.76779 34.9328C0.561031 35.4215 0.579827 36.2768 0.805382 36.7937C1.06853 37.3857 11.2655 47.5169 11.8952 47.8083C12.3745 48.0338 13.0794 48.062 13.6432 47.8835C13.9252 47.7895 14.4985 47.282 16.1525 45.6373C17.3367 44.4625 18.3893 43.3442 18.5021 43.1374C18.7276 42.6957 18.7746 41.6807 18.5773 41.3142C18.4551 41.0886 18.5303 41.004 21.0208 38.5323C23.5771 35.9854 24.094 35.5719 24.6485 35.5719C24.7894 35.5719 25.3721 35.6377 25.9266 35.7317C27.1578 35.929 27.8532 35.8351 29.0844 35.337L29.8926 35.008L30.6727 35.7881L31.4621 36.5775L31.2648 37.1978C31.0204 37.9872 30.8418 39.3218 30.9076 39.8857C31.0298 41.004 32.2892 40.8819 32.2892 39.7447C32.2986 38.9646 32.4677 38.0154 32.7685 37.1508C33.0034 36.4647 33.0316 36.2862 32.9376 36.117C32.8812 35.9948 30.2967 33.3915 27.1954 30.3183C23.3045 26.4557 21.5753 24.6889 21.6129 24.5855C21.6317 24.5009 21.7632 24.125 21.9042 23.7396C22.0452 23.3543 22.1768 22.8186 22.2049 22.5367C22.2331 22.2641 22.2707 22.0386 22.2895 22.0386C22.3083 22.0386 22.6373 22.2453 23.032 22.4991C24.3007 23.3261 25.983 23.8242 27.0638 23.6927L27.5619 23.6269L27.6183 24.0874C27.778 25.4125 28.887 26.5779 30.2216 26.8128C30.5223 26.8692 30.6351 26.935 30.6069 27.029C30.5881 27.1042 30.5787 27.4425 30.5787 27.7902C30.5787 29.3033 31.7065 30.4969 33.2572 30.6473L33.8398 30.7131L34.977 31.822C35.8417 32.6773 36.1706 32.9404 36.3586 32.9404C36.4901 32.9404 36.9976 32.8089 37.4769 32.6397C38.2852 32.3577 38.4449 32.3389 39.6197 32.3295C41.0858 32.3295 41.7531 32.4893 43.05 33.1566C44.0932 33.6923 45.2586 34.8576 45.7943 35.9008C46.4428 37.1602 46.6213 37.8744 46.6119 39.2372C46.6119 40.2146 46.4803 41.2108 46.3488 41.2108C46.33 41.2108 45.3244 40.224 44.1214 39.021C41.7249 36.6339 41.4335 36.4177 40.2682 36.2392C39.2438 36.07 38.2664 36.3238 37.3923 36.9628C37.1104 37.1696 36.9036 37.4515 36.6405 37.9778C36.3022 38.6827 36.2834 38.7485 36.2834 39.6601C36.2834 40.5341 36.3022 40.6469 36.6029 41.2578C36.8754 41.8499 37.148 42.1506 39.1216 44.0866L41.3302 46.267L40.973 46.3892C40.7287 46.4831 40.1648 46.5207 39.2438 46.5207C38.0032 46.5113 37.8153 46.4925 37.1292 46.2576C35.6255 45.7313 34.3755 44.7915 33.5485 43.5321C32.9 42.5735 32.7685 42.4325 32.4583 42.4325C32.1388 42.4325 31.7253 42.7991 31.7253 43.0904C31.7253 43.5227 32.6745 44.8761 33.5673 45.7313C34.4977 46.6053 35.4939 47.1974 36.7063 47.5827C38.9994 48.3252 42.035 47.9869 42.5801 46.9437C42.7681 46.5865 42.7587 46.0696 42.5707 45.6937C42.4861 45.5245 41.396 44.3592 40.146 43.0904C38.2664 41.192 37.8529 40.7221 37.7589 40.4025C37.3266 38.8894 38.1536 37.6395 39.6009 37.6113C40.6065 37.5925 40.6817 37.6489 43.238 40.177C45.7003 42.6111 45.9635 42.8085 46.5931 42.6769C47.298 42.5359 47.7209 41.9063 47.9371 40.6751C48.2942 38.7109 47.9089 36.6809 46.8469 34.8858C46.33 33.993 44.9578 32.6209 44.065 32.104C42.2512 31.0326 40.2306 30.6567 38.2006 31.0138C37.7589 31.089 37.2138 31.2112 36.9882 31.2958L36.5747 31.4461L35.9168 30.7789L35.2496 30.121L37.289 28.0816C39.6197 25.7321 39.7513 25.5535 39.7513 24.3881C39.7607 23.4577 39.4975 22.8562 38.8115 22.2359C38.2758 21.7472 37.6555 21.4747 37.0822 21.4747H36.7345L36.6875 20.7792C36.5935 19.3131 35.5879 18.1384 34.1688 17.847C33.6895 17.753 33.6519 17.7248 33.6989 17.5181C33.7271 17.3959 33.7459 16.973 33.7365 16.5877C33.7271 15.6948 33.4263 15.0088 32.7591 14.3885C32.1576 13.8246 31.5655 13.5615 30.7573 13.5051C30.2404 13.4675 30.1276 13.4299 30.1746 13.3171C30.2028 13.2419 30.1746 12.9224 30.1182 12.6028C29.8362 11.0052 28.5393 9.91502 26.9322 9.91502C25.7668 9.91502 25.3909 10.1217 23.8684 11.6254C23.1448 12.3397 22.5151 12.9224 22.4775 12.9224C22.4399 12.9224 22.2519 12.8002 22.064 12.6404C21.876 12.4901 21.5189 12.3209 21.2745 12.2739C20.4851 12.0953 19.9212 12.3021 19.1506 13.0446L18.6618 13.5333L17.6187 12.4901L16.5755 11.4469L16.7728 10.8172C18.0604 6.63507 15.7672 2.02998 11.6508 0.526277C10.5888 0.140954 9.17913 -0.0658056 8.18292 0.0187777ZM10.3727 1.60706C10.758 1.69164 11.4347 1.94539 11.9234 2.18974C12.6376 2.53748 12.9384 2.76303 13.6338 3.46789C14.8556 4.69905 15.4477 5.89261 15.6638 7.58428C15.7954 8.59927 15.6732 9.66127 15.3161 10.695C14.9026 11.8604 14.818 11.6442 16.3217 13.1667L17.675 14.5201L16.0962 16.099L14.5267 17.6684L13.2203 16.3621C11.7354 14.8772 11.8012 14.9054 10.7016 15.3001C7.18672 16.5689 3.27709 14.8114 1.86737 11.3247C1.58543 10.6104 1.36927 9.51091 1.36927 8.75906C1.36927 8.12938 1.52904 7.11437 1.65121 6.89821C1.717 6.79483 2.2433 7.27414 3.97256 8.994C6.67922 11.6818 6.7732 11.7476 8.3239 11.7476C9.23551 11.7476 9.35769 11.7288 9.92158 11.4563C10.6922 11.0897 11.0963 10.6856 11.4629 9.91502C11.726 9.36053 11.7542 9.21955 11.7542 8.36432C11.7542 7.49969 11.726 7.37752 11.4441 6.76664C11.1715 6.19335 10.8896 5.86442 8.98176 3.9472C7.7882 2.75363 6.82019 1.74803 6.82019 1.71984C6.82019 1.65405 7.61903 1.47548 8.18292 1.42849C8.73741 1.37211 9.59264 1.44729 10.3727 1.60706ZM28.0224 11.663C28.7085 12.2081 28.9622 13.2231 28.5957 13.9092C28.5111 14.069 27.919 14.7174 27.2799 15.3565C26.2743 16.3527 26.0864 16.5031 25.936 16.4185C25.8326 16.3621 25.2405 15.7982 24.6109 15.1591L23.4549 14.0032L24.6579 12.8096C25.3157 12.1517 25.983 11.5503 26.1334 11.4657C26.3307 11.3623 26.6033 11.3247 27.045 11.3435C27.5807 11.3717 27.7217 11.4187 28.0224 11.663ZM24.8458 17.3771C26.8664 19.4071 28.5299 21.127 28.5299 21.2021C28.5299 21.2867 28.3701 21.5217 28.1822 21.7284C27.4585 22.5085 26.1146 22.4897 24.4887 21.6909C23.6805 21.2961 23.4737 21.127 22.2707 19.9522C21.1336 18.8432 20.8986 18.6552 20.6449 18.6552C20.3253 18.6552 19.987 18.9278 19.9682 19.1909C19.9494 19.5105 19.9964 19.6421 20.3065 20.065C20.7106 20.6383 20.8234 21.0048 20.8234 21.8036C20.8234 22.969 20.3723 24.078 19.4701 25.1212C18.9344 25.7415 18.8592 26.014 19.1036 26.3429C19.2351 26.5215 19.3949 26.6061 19.6393 26.6249C19.9494 26.6531 20.034 26.6061 20.3629 26.2583L20.7388 25.8542L24.7894 29.9048L28.84 33.9554L28.013 34.2186L27.1954 34.4723L25.889 34.3032C24.3101 34.0964 23.8496 34.1622 23.0132 34.7355C22.7124 34.9516 21.3685 36.211 20.0246 37.5549L17.5811 39.989L15.6732 38.1376C14.0286 36.5587 13.7184 36.2956 13.4741 36.2956C13.1169 36.2956 12.835 36.6057 12.835 37.0098C12.835 37.2636 13.1169 37.5831 15.0342 39.5191C16.3969 40.8819 17.2615 41.8217 17.2991 41.972C17.3367 42.1224 17.3085 42.3292 17.2145 42.4889C17.0078 42.8837 13.3989 46.4456 13.0888 46.5583C12.8914 46.6335 12.7504 46.6241 12.5249 46.5301C12.3557 46.455 10.025 44.19 7.13033 41.286C2.11172 36.2674 2.02714 36.1734 2.02714 35.8069C2.02714 35.4497 2.10233 35.3651 4.07594 33.3915C6.04015 31.4179 6.13413 31.3427 6.49126 31.3427C6.83899 31.3427 6.93297 31.4179 8.83139 33.307C9.92158 34.3877 10.9084 35.2994 11.0212 35.3276C11.2843 35.4121 11.773 35.1678 11.8482 34.9046C11.8858 34.8013 11.8858 34.6227 11.8576 34.5099C11.8294 34.3971 11.0869 33.5889 10.2129 32.7149L8.61524 31.1172L10.6076 29.0872C14.0004 25.6381 14.7428 24.3223 14.9026 21.4277C14.9684 20.0462 15.0624 19.6421 15.4195 18.9278C15.6075 18.5613 20.2971 13.7964 20.5885 13.6742C20.6918 13.6272 20.861 13.6178 20.9644 13.646C21.0678 13.6648 22.8158 15.3471 24.8458 17.3771ZM31.2366 15.037C32.2046 15.4505 32.6369 16.5407 32.2046 17.4805C32.1012 17.6966 31.5185 18.3545 30.823 19.0406L29.6107 20.2247L28.3513 18.9184L27.092 17.6027L28.2574 16.4279C28.8964 15.7888 29.5731 15.1779 29.7517 15.084C30.1558 14.8678 30.7667 14.849 31.2366 15.037ZM33.9338 19.2285C35.0146 19.5293 35.5879 20.6946 35.1556 21.7284C34.977 22.1608 32.3173 24.8674 31.7441 25.2058C30.6069 25.8824 29.1502 25.14 29.0186 23.8336C28.9434 23.0066 29.0844 22.781 30.7291 21.1176C32.1764 19.6515 32.5053 19.3789 33.041 19.2097C33.3793 19.1064 33.5109 19.1158 33.9338 19.2285ZM37.5427 23.0254C37.9562 23.2321 38.2852 23.6927 38.351 24.1438C38.4637 24.8674 38.2288 25.187 36.18 27.2264C34.1688 29.2094 33.9244 29.3691 33.182 29.2376C32.6933 29.1436 32.1482 28.6173 32.0166 28.1192C31.8192 27.3297 31.932 27.1606 33.962 25.1024C34.9864 24.078 35.945 23.157 36.0954 23.063C36.4337 22.8468 37.1668 22.828 37.5427 23.0254Z" fill="black"/>
</g>
<defs>
<clipPath id="clip0_43_32">
<rect width="49" height="48" fill="white"/>
</clipPath>
</defs>
</svg>
