<svg width="20" height="21" viewBox="0 0 20 21" fill="none" xmlns="http://www.w3.org/2000/svg">
<path d="M4.91983 0.0890617C4.35698 0.236473 3.93262 0.705511 3.84774 1.26835L3.81647 1.4783H2.98114C2.02967 1.4783 1.73931 1.52744 1.28368 1.76866C0.765504 2.04115 0.314335 2.57272 0.135655 3.11323C0.0552483 3.36785 0.0507812 3.59567 0.0507812 10.7697C0.0507812 17.9437 0.0552483 18.1715 0.135655 18.4262C0.314335 18.9667 0.765504 19.4982 1.28368 19.7707C1.87779 20.0789 1.35515 20.0655 9.6638 20.0521L17.1594 20.0387L17.4453 19.936C18.1511 19.6814 18.7274 19.1007 18.9507 18.4262C19.0311 18.1715 19.0356 17.9437 19.0356 10.7697C19.0356 3.59567 19.0311 3.36785 18.9507 3.11323C18.7274 2.43424 18.1467 1.85353 17.4453 1.60338C17.1907 1.51404 17.0567 1.50064 16.2169 1.48724L15.2699 1.46937L15.2386 1.26389C15.1984 1.00033 14.9751 0.571501 14.8009 0.424088C14.7294 0.361549 14.5641 0.258808 14.439 0.191803C14.2425 0.0935287 14.1576 0.0756607 13.8315 0.0756607C13.5233 0.0756607 13.4116 0.0935287 13.2285 0.182869C12.7996 0.392818 12.4914 0.808252 12.4244 1.26835L12.3931 1.4783H9.54319H6.69323L6.66196 1.26835C6.59496 0.821653 6.3314 0.446423 5.92937 0.232006C5.63902 0.0801277 5.19678 0.0131226 4.91983 0.0890617ZM5.45587 1.0584C5.68815 1.16561 5.74622 1.34429 5.74622 1.94287C5.74622 2.2913 5.72389 2.51465 5.68369 2.61739C5.61668 2.77374 5.42013 2.90775 5.25485 2.90775C5.08957 2.90775 4.89302 2.77374 4.82602 2.61739C4.78582 2.51465 4.76348 2.2913 4.76348 1.94287C4.76348 1.34876 4.82155 1.17008 5.0449 1.0584C5.22358 0.969065 5.27272 0.969065 5.45587 1.0584ZM14.0325 1.0584C14.2648 1.16561 14.3229 1.34429 14.3229 1.94287C14.3229 2.2913 14.3006 2.51465 14.2604 2.61739C14.1933 2.77374 13.9968 2.90775 13.8315 2.90775C13.6662 2.90775 13.4697 2.77374 13.4027 2.61739C13.3625 2.51465 13.3401 2.2913 13.3401 1.94287C13.3401 1.34876 13.3982 1.17008 13.6216 1.0584C13.8003 0.969065 13.8494 0.969065 14.0325 1.0584ZM3.84328 2.63079C3.90135 3.07749 4.20064 3.48846 4.6384 3.72074C4.79922 3.80562 4.89749 3.82348 5.25485 3.82348C5.61221 3.82348 5.71049 3.80562 5.8713 3.72074C6.30907 3.48846 6.60836 3.07749 6.66643 2.63079L6.6977 2.41638H9.54319H12.3887L12.4199 2.63079C12.478 3.07749 12.7773 3.48846 13.2151 3.72074C13.4965 3.86815 14.1665 3.86815 14.448 3.72074C14.8857 3.48846 15.185 3.07749 15.2431 2.62633L15.2744 2.40744L16.1276 2.42531C16.7976 2.44318 17.0254 2.46105 17.1952 2.52358C17.4855 2.63526 17.8608 2.98369 17.9903 3.27404C18.0931 3.50186 18.0975 3.55993 18.1109 4.63648L18.1243 5.76664H9.54319H0.962052L0.975453 4.63648C0.988854 3.57333 0.993321 3.49739 1.0916 3.28744C1.20327 3.04176 1.44002 2.77374 1.67677 2.63079C1.93139 2.46998 2.23962 2.42531 3.04815 2.42084L3.81201 2.41638L3.84328 2.63079ZM18.1109 12.3644L18.0975 18.0286L17.9903 18.2653C17.8518 18.5691 17.4855 18.9086 17.1728 19.0203C16.945 19.0962 16.5966 19.1007 9.54319 19.1007C2.48977 19.1007 2.14134 19.0962 1.91353 19.0203C1.60084 18.9086 1.23454 18.5691 1.09606 18.2653L0.988854 18.0286L0.975453 12.3644L0.966519 6.70471H9.54319H18.1199L18.1109 12.3644Z" fill="#0B0B0B"/>
<path d="M3.47204 8.69716C3.26656 8.7865 3.08341 8.96518 2.9762 9.17513C2.89133 9.33148 2.88686 9.42528 2.90026 10.3455L2.91366 11.3416L3.04767 11.5382C3.12361 11.6454 3.27549 11.7794 3.3827 11.8419C3.57925 11.9536 3.60158 11.9536 4.54412 11.9536C5.48666 11.9536 5.509 11.9536 5.70555 11.8419C5.81275 11.7794 5.96463 11.6454 6.04057 11.5382L6.17458 11.3416L6.18798 10.3991C6.20585 9.34934 6.18352 9.2064 5.96017 8.95178C5.70108 8.65696 5.576 8.62569 4.54412 8.63015C3.82493 8.63015 3.59265 8.64356 3.47204 8.69716ZM5.25884 10.2785V10.9932H4.54412H3.8294V10.2785V9.56376H4.54412H5.25884V10.2785Z" fill="#0B0B0B"/>
<path d="M8.47204 8.69716C8.26656 8.7865 8.08341 8.96518 7.9762 9.17513C7.89133 9.33148 7.88686 9.42528 7.90026 10.3455L7.91366 11.3416L8.04767 11.5382C8.12361 11.6454 8.27549 11.7794 8.3827 11.8419C8.57925 11.9536 8.60158 11.9536 9.54412 11.9536C10.4867 11.9536 10.509 11.9536 10.7055 11.8419C10.8128 11.7794 10.9646 11.6454 11.0406 11.5382L11.1746 11.3416L11.188 10.3991C11.2059 9.34934 11.1835 9.2064 10.9602 8.95178C10.7011 8.65696 10.576 8.62569 9.54412 8.63015C8.82493 8.63015 8.59265 8.64356 8.47204 8.69716ZM10.2588 10.2785V10.9932H9.54412H8.8294V10.2785V9.56376H9.54412H10.2588V10.2785Z" fill="#0B0B0B"/>
<path d="M13.4759 8.69716C13.2705 8.7865 13.0873 8.96518 12.9801 9.17513C12.8952 9.33148 12.8908 9.42528 12.9042 10.3455L12.9176 11.3416L13.0516 11.5382C13.1275 11.6454 13.2794 11.7794 13.3866 11.8419C13.5832 11.9536 13.6055 11.9536 14.548 11.9536C15.4906 11.9536 15.5129 11.9536 15.7095 11.8419C15.8167 11.7794 15.9685 11.6454 16.0445 11.5382L16.1785 11.3416L16.1919 10.3991C16.2098 9.34934 16.1874 9.2064 15.9641 8.95178C15.705 8.65696 15.5799 8.62569 14.548 8.63015C13.8288 8.63015 13.5966 8.64356 13.4759 8.69716ZM15.2628 10.2785V10.9932H14.548H13.8333V10.2785V9.56376H14.548H15.2628V10.2785Z" fill="#0B0B0B"/>
<path d="M3.60535 13.8921C3.27926 13.9948 3.07377 14.1735 2.95763 14.4415C2.90403 14.5755 2.89062 14.8034 2.89062 15.5494C2.89062 16.5857 2.91296 16.6795 3.18991 16.9431C3.4356 17.1753 3.56514 17.2021 4.55235 17.2021C5.5753 17.2021 5.70038 17.1709 5.95946 16.8761C6.18281 16.6214 6.20515 16.4785 6.18728 15.4287L6.17388 14.4862L6.03987 14.2897C5.96393 14.1824 5.81205 14.0484 5.70484 13.9859C5.51276 13.8787 5.47256 13.8742 4.61043 13.8653C4.11905 13.8608 3.66789 13.8742 3.60535 13.8921ZM5.25814 15.5494V16.2641H4.54342H3.8287V15.5494V14.8346H4.54342H5.25814V15.5494Z" fill="#0B0B0B"/>
<path d="M8.60535 13.8921C8.27926 13.9948 8.07377 14.1735 7.95763 14.4415C7.90403 14.5755 7.89062 14.8034 7.89062 15.5494C7.89062 16.5857 7.91296 16.6795 8.18991 16.9431C8.4356 17.1753 8.56514 17.2021 9.55235 17.2021C10.5753 17.2021 10.7004 17.1709 10.9595 16.8761C11.1828 16.6214 11.2051 16.4785 11.1873 15.4287L11.1739 14.4862L11.0399 14.2897C10.9639 14.1824 10.8121 14.0484 10.7048 13.9859C10.5128 13.8787 10.4726 13.8742 9.61043 13.8653C9.11905 13.8608 8.66789 13.8742 8.60535 13.8921ZM10.2581 15.5494V16.2641H9.54342H8.8287V15.5494V14.8346H9.54342H10.2581V15.5494Z" fill="#0B0B0B"/>
<path d="M13.6093 13.8921C13.2832 13.9948 13.0777 14.1735 12.9615 14.4415C12.9079 14.5755 12.8945 14.8034 12.8945 15.5494C12.8945 16.5857 12.9169 16.6795 13.1938 16.9431C13.4395 17.1753 13.5691 17.2021 14.5563 17.2021C15.5792 17.2021 15.7043 17.1709 15.9634 16.8761C16.1867 16.6214 16.2091 16.4785 16.1912 15.4287L16.1778 14.4862L16.0438 14.2897C15.9678 14.1824 15.816 14.0484 15.7088 13.9859C15.5167 13.8787 15.4765 13.8742 14.6143 13.8653C14.123 13.8608 13.6718 13.8742 13.6093 13.8921ZM15.262 15.5494V16.2641H14.5473H13.8326V15.5494V14.8346H14.5473H15.262V15.5494Z" fill="#0B0B0B"/>
</svg>
