<svg width="63" height="41" viewBox="0 0 63 41" fill="none" xmlns="http://www.w3.org/2000/svg">

<defs>
		<style>
			@keyframes draw {
  from {
    stroke-dasharray: 0 100;
  }
  to {
    stroke-dasharray: 100 0;
  }
}
 
path {
  stroke: black;
  stroke-width: 1;
  fill: none;
  animation: draw 1.8s linear infinite;
}
		</style>
	  </defs>


	
<path d="M35.8185 1H27.1815C26.0085 1 25.0874 2.00473 25.189 3.17326L26.6844 20.371C26.8883 22.715 27.787 25.2517 30.0299 25.9627C31.363 26.3852 32.5843 26.2197 33.5997 25.7961C35.4217 25.036 36.0913 22.9505 36.2623 20.9836L37.811 3.17326C37.9126 2.00473 36.9915 1 35.8185 1Z" stroke="red"/>
<path d="M45.9996 5.5C44.7996 5.5 44.1663 7.16667 43.9996 8L42.4996 23C42.3329 23.5 42.2996 24.6 43.4996 25C44.6996 25.4 45.3329 24.5 45.4996 24L47.7996 8C47.7996 7.16667 47.4996 5.5 45.9996 5.5Z" stroke="red"/>
<path d="M19.4066 13.1909L18.8277 7.42671C18.6273 6.61783 17.9353 5.07221 16.4794 5.43293C15.3146 5.7215 15.1006 7.49156 15.1392 8.34052L17.2904 23.2611C17.2488 23.7865 17.481 24.8622 18.742 24.9619C20.003 25.0616 20.4013 24.0357 20.4428 23.5103L19.6384 15.5" stroke="black" stroke-linecap="round"/>
<path d="M43 34H4.5C3.33333 34 1 34.6 1 37C1 39.4 3 40 4 40H15" stroke="red" stroke-linecap="round"/>
<path d="M18 40H59.5C60.3333 39.8333 61.6119 39.0522 62 37.5C62.5 35.5 60.5 34 59.5 34C58.7 34 50.5 34 46.5 34" stroke="black" stroke-linecap="round"/>
<path d="M4.5 34C4.5 29.1667 6.6 17.6 15 10" stroke="red"/>
<path d="M58.5 34C58.5 29.1667 55.9 17.1 47.5 9.5" stroke="black"/>
<path d="M19 7.5C20.8333 6.66667 24.7 5 25.5 5" stroke="black"/>
<path d="M44.5 7.5C42.6667 6.66667 38.8 5 38 5" stroke="black"/>
</svg>
