<svg width="65" height="63" viewBox="0 0 65 63" fill="none" xmlns="http://www.w3.org/2000/svg">


<defs>
		<style>
			@keyframes draw {
  from {
    stroke-dasharray: 0 100;
  }
  to {
    stroke-dasharray: 100 0;
  }
}
 
path {
  stroke: black;
  stroke-width: 1;
  fill: none;
  animation: draw 1.8s linear infinite;
}
		</style>
	  </defs>





<path d="M30.933 55.1622L15.9615 50.4569C15.4317 50.2904 15.1391 49.7241 15.3097 49.1956L30.4259 2.38407C30.4746 2.23331 30.5576 2.09473 30.6743 1.98755C32.5291 0.283436 34.2138 1.11108 34.9178 2.03927C34.9747 2.11432 35.0144 2.20028 35.0428 2.2901L49.7061 48.7241C49.8696 49.2417 49.5903 49.7952 49.0769 49.9712L34.0538 55.122C33.0445 55.468 31.9509 55.4821 30.933 55.1622Z" stroke="#0B0B0B"/>
<path d="M17.5 42.1548H47.5" stroke="#0B0B0B"/>
<path d="M22 28.1548L43.5 28.1548" stroke="#0B0B0B"/>
<path d="M26 15.1548L39 15.1548" stroke="#0B0B0B"/>
<path d="M53 46.6548L62.2351 49.8449C63.1361 50.1561 63.1321 51.4318 62.229 51.7373L33.0132 61.6207C31.9884 61.9674 30.8788 61.9723 29.851 61.6348L2.74809 52.7346C1.8457 52.4383 1.82593 51.1689 2.71866 50.8446L11.5 47.6548" stroke="#0B0B0B"/>
<circle cx="32" cy="36.1548" r="1" fill="#0B0B0B"/>
<circle cx="32" cy="49.1548" r="1" fill="#0B0B0B"/>
<circle cx="32" cy="22.1548" r="1" fill="#0B0B0B"/>
<circle cx="32" cy="9.15479" r="1" fill="#0B0B0B"/>
</svg>
