<svg width="62" height="47" viewBox="0 0 62 47" fill="none" xmlns="http://www.w3.org/2000/svg">


<defs>
		<style>
			@keyframes draw {
  from {
    stroke-dasharray: 0 100;
  }
  to {
    stroke-dasharray: 100 0;
  }
}
 
path {
  stroke: black;
  stroke-width: 1;
  fill: none;
  animation: draw 1.8s linear infinite;
}
		</style>
	  </defs>





<path d="M23.5 9.5V6C23.5 5.44772 23.9477 5 24.5 5H36.5C37.0523 5 37.5 5.44772 37.5 6V9.5" stroke="black"/>
<path d="M19 10V5C19 2.79086 20.7909 1 23 1H38C40.2091 1 42 2.79086 42 5V10" stroke="black"/>
<path d="M18 46L20.0581 40.1687C20.6225 38.5695 22.1341 37.5 23.8301 37.5H36.8212C38.4421 37.5 39.9028 38.4782 40.5199 39.977L43 46" stroke="black"/>
<path d="M37.8037 28H59C60.1046 28 61 27.1046 61 26V23C61 21.8954 60.1046 21 59 21H2.5C1.39543 21 0.5 21.8954 0.5 23V26C0.5 27.1046 1.39543 28 2.5 28H23" stroke="black"/>
<path d="M23.5 21V28C23.5 29.6569 24.8431 31 26.5 31H34.5C36.1569 31 37.5 29.6569 37.5 28V21" stroke="black"/>
<path d="M4 21L10.2029 12.471C11.332 10.9185 13.1357 10 15.0553 10H46.0284C47.9009 10 49.6661 10.8743 50.8009 12.3637L57 20.5" stroke="black"/>
<path d="M4 28L10.4164 42.4368C11.3794 44.6036 13.5281 46 15.8992 46H45.0436C47.4438 46 49.613 44.5696 50.5585 42.3635L56.5 28.5" stroke="black"/>
</svg>
