<svg width="28" height="30" viewBox="0 0 28 30" fill="none" xmlns="http://www.w3.org/2000/svg">
<path d="M5.97702 0.128532C5.62543 0.304327 5.41447 0.614897 5.32658 1.0954C5.03944 2.67169 3.89092 3.98429 2.28533 4.57028C2.02164 4.66989 1.56457 4.78709 1.26572 4.83983C0.97273 4.89257 0.66216 4.96874 0.574262 5.00976C0.345729 5.13282 0.064458 5.47855 0.0234393 5.70122C0 5.8067 -0.00585982 7.39471 0.00585982 9.22883C0.0234393 11.895 0.0410187 12.5982 0.105477 12.7271C0.210954 12.9322 0.451206 13.0319 0.6563 12.9557C0.914132 12.8561 0.937571 12.7389 0.873113 11.8833C0.843814 11.4556 0.814515 9.93787 0.814515 8.51393C0.814515 5.6016 0.785216 5.7774 1.27158 5.71294C2.05094 5.60746 3.20532 5.17384 3.8499 4.74021C5.0453 3.9257 5.90084 2.66583 6.14109 1.36495C6.17625 1.18916 6.23485 1.00165 6.27001 0.960627C6.36962 0.83757 20.8082 0.83757 20.9078 0.954766C20.943 1.00165 21.0016 1.17744 21.0309 1.35323C21.2829 2.67755 22.1267 3.9257 23.3279 4.74021C23.9725 5.17384 25.1269 5.60746 25.9063 5.71294C26.3926 5.7774 26.3633 5.59574 26.3633 8.54323C26.3633 9.98475 26.334 11.4907 26.3047 11.895C26.252 12.5689 26.252 12.6392 26.3575 12.774C26.5157 12.9908 26.8614 12.9791 27.0313 12.7564C27.1544 12.5924 27.1544 12.5396 27.172 9.21125C27.1896 6.89662 27.172 5.76568 27.131 5.61918C27.0958 5.49613 26.961 5.30861 26.8321 5.19728C26.5977 4.98046 26.504 4.9453 25.6894 4.79295C23.7147 4.41206 22.1911 2.94711 21.8513 1.0954C21.7634 0.614897 21.5524 0.298467 21.195 0.122672L20.9371 -0.000384331H13.5831H6.23485L5.97702 0.128532Z" fill="#0B0B0B"/>
<path d="M7.69918 2.11018C7.33001 2.28598 7.2304 2.39732 6.88467 3.0126C6.43932 3.80367 6.06429 4.28418 5.46073 4.87016C4.84545 5.462 4.14813 5.93665 3.31604 6.32926C2.61286 6.66327 2.38433 6.8332 2.20267 7.17307C2.07961 7.40746 2.07376 7.4602 2.07961 9.43496C2.07961 11.5035 2.12649 12.1891 2.34331 13.4196C3.13438 17.9258 5.61309 22.0043 9.39853 25.0455C10.8049 26.1765 12.8675 27.4422 13.4184 27.5184C13.7934 27.5711 14.0629 27.4773 14.8775 27.0086C20.2451 23.9497 23.8488 19.0392 24.8333 13.4196C25.0501 12.2008 25.097 11.5035 25.097 9.43496C25.1028 7.57154 25.097 7.39574 24.9915 7.20823C24.7981 6.83906 24.5872 6.67498 23.9074 6.3527C23.0226 5.93665 22.3429 5.47372 21.7159 4.87016C21.1123 4.28418 20.7373 3.80367 20.2919 3.0126C19.9462 2.39732 19.8466 2.28598 19.4774 2.11018C19.2489 1.99885 19.0379 1.99299 13.5883 1.99299C8.13867 1.99299 7.92772 1.99885 7.69918 2.11018ZM19.1551 2.88954C19.243 2.93056 19.4012 3.14151 19.536 3.39935C20.4267 5.05182 21.6749 6.22964 23.4445 7.07931C23.9836 7.33714 24.1477 7.44262 24.2004 7.57154C24.3059 7.82351 24.2356 11.732 24.1125 12.5993C23.7727 14.9491 22.9347 17.2988 21.7042 19.3439C20.3857 21.5238 18.3992 23.6274 16.1901 25.1686C15.0943 25.9362 13.8286 26.6628 13.5883 26.6628C13.2895 26.6628 11.637 25.6667 10.4181 24.7467C6.07015 21.4769 3.45081 16.9004 2.98203 11.7496C2.89999 10.8472 2.90585 7.72389 2.98789 7.53638C3.03477 7.43676 3.2047 7.32542 3.53285 7.17893C5.32596 6.37613 6.73817 5.08111 7.64058 3.39935C7.77536 3.14151 7.93358 2.93056 8.02147 2.88954C8.23829 2.7782 18.9383 2.7782 19.1551 2.88954Z" fill="#0B0B0B"/>
<path d="M12.7397 4.54135C11.474 4.81676 10.4603 5.60783 9.87428 6.77394C9.51683 7.4947 9.47581 7.73495 9.44652 9.27022L9.41722 10.6649H8.97773C8.73162 10.6649 8.42691 10.7 8.29213 10.7352C7.9757 10.8289 7.54207 11.2626 7.44832 11.579C7.35456 11.8954 7.3487 18.2006 7.44246 18.5346C7.51863 18.81 7.84678 19.185 8.16321 19.355L8.40347 19.4839H13.5894H18.7753L19.0508 19.3491C19.2031 19.2729 19.4082 19.1206 19.502 19.0092C19.8536 18.6166 19.8594 18.517 19.8594 15.0949C19.8594 13.1787 19.836 11.8837 19.795 11.7196C19.7129 11.3563 19.4785 11.0399 19.1621 10.8524C18.9336 10.7176 18.8046 10.6883 18.3359 10.6649L17.7792 10.6356L17.7499 9.1706C17.7147 7.74667 17.7089 7.69393 17.5506 7.26616C16.9119 5.5551 15.3356 4.44173 13.5777 4.45931C13.3081 4.45931 12.9331 4.50033 12.7397 4.54135ZM14.7321 5.50822C15.4763 5.76605 16.1794 6.38719 16.5428 7.10209C16.8592 7.73495 16.9295 8.16271 16.9295 9.50461V10.6649H13.6187H10.3079V9.4343C10.3079 8.76042 10.3372 8.06896 10.3724 7.89902C10.5833 6.87356 11.4447 5.8891 12.4585 5.50822C13.1089 5.26796 14.0406 5.2621 14.7321 5.50822ZM18.8398 11.6786L18.9804 11.8427V15.0656V18.2943L18.8105 18.4643L18.6406 18.6342H13.5894H8.5441L8.40347 18.4877L8.25697 18.3471V15.0714V11.7958L8.39175 11.6786C8.46207 11.6141 8.56168 11.5438 8.60856 11.5263C8.65544 11.5087 10.9466 11.497 13.6949 11.5028L18.6992 11.5145L18.8398 11.6786Z" fill="#0B0B0B"/>
<path d="M13.2086 13.7004C12.9273 13.8351 12.8042 13.9641 12.6753 14.2688C12.5112 14.6614 12.687 15.2298 13.0328 15.4114C13.1793 15.4876 13.1793 15.4993 13.1793 16.1849C13.1793 16.8471 13.1851 16.8881 13.3258 17.0229C13.484 17.187 13.5719 17.1987 13.7887 17.1049C13.9938 17.0112 14.0582 16.7709 14.0582 16.1029C14.0582 15.5286 14.0582 15.5169 14.234 15.3704C14.4801 15.1653 14.5856 14.9368 14.5856 14.6145C14.5856 13.8937 13.8473 13.4015 13.2086 13.7004Z" fill="#0B0B0B"/>
<path d="M0.562967 14.521C0.410612 14.6851 0.439911 14.9664 0.703603 15.8864C1.74665 19.5898 3.81517 22.9357 6.72164 25.6254C8.33309 27.1138 9.9211 28.2154 12.1244 29.3815C13.2612 29.9792 13.4839 30.0554 13.8472 29.9558C14.1812 29.8679 16.1852 28.7956 17.1228 28.1979C21.213 25.5961 24.348 21.8048 25.9418 17.5213C26.2934 16.5778 26.7153 15.1246 26.7153 14.8492C26.7153 14.4566 26.2817 14.2691 26.0239 14.5445C25.9594 14.6207 25.8657 14.8492 25.8129 15.0601C25.4262 16.7302 24.5824 18.7811 23.6155 20.3984C21.8634 23.3342 19.2324 25.9418 16.1677 27.7877C15.3414 28.2858 13.7241 29.1237 13.5952 29.1237C13.519 29.1237 13.0327 28.8952 12.517 28.6198C10.0383 27.3013 8.40927 26.1235 6.67476 24.3831C4.1023 21.7989 2.29747 18.6756 1.40678 15.2359C1.3013 14.8199 1.19583 14.5386 1.13137 14.4917C0.979015 14.3804 0.674304 14.398 0.562967 14.521Z" fill="#0B0B0B"/>
</svg>
