<svg width="20" height="16" viewBox="0 0 20 16" fill="none" xmlns="http://www.w3.org/2000/svg">
<path d="M8.60113 0.0507889C8.3784 0.123507 8.09707 0.418419 8.02283 0.656772C7.96421 0.858766 7.96812 1.01228 8.15959 4.24015C8.30416 6.6156 8.38231 7.67001 8.42139 7.79928C8.48391 8.00532 8.67928 8.23963 8.87856 8.34871C8.98797 8.41335 9.12473 8.42142 10 8.42142C10.8753 8.42142 11.012 8.41335 11.1214 8.34871C11.3207 8.23963 11.5161 8.00532 11.5786 7.79928C11.6177 7.67001 11.688 6.77315 11.7974 4.88653C11.8873 3.38773 11.9655 2.15557 11.9694 2.14749C11.9772 2.14345 12.153 2.19193 12.3679 2.25657C13.4972 2.60399 14.5795 3.23018 15.4978 4.07047L15.7401 4.29267L15.6228 4.4381C15.5603 4.5189 15.3767 4.75725 15.2204 4.97137C14.2005 6.36108 13.5792 8.11843 13.4894 9.83942L13.4659 10.3323L13.2158 10.3727C12.9032 10.4252 12.6532 10.5747 12.5047 10.7969C12.3445 11.0393 12.3054 11.2251 12.3054 11.7422V12.1987H10H7.6946V11.7422C7.6946 11.2251 7.66334 11.0797 7.50313 10.8171C7.35856 10.5787 7.11239 10.4292 6.78025 10.3727L6.52236 10.3282V10.0535C6.52236 9.68187 6.42467 8.92641 6.30354 8.36891C6.0183 7.05594 5.36966 5.69046 4.53346 4.64414L4.25603 4.30075L4.46313 4.10683C4.99064 3.59781 5.82683 3.02414 6.50282 2.70095C6.68257 2.61611 6.85059 2.51108 6.87012 2.46664C6.97953 2.25657 6.8584 2.01821 6.63568 2.01821C6.56534 2.01821 6.30745 2.12729 6.01048 2.28484C3.3456 3.68668 1.57552 6.31261 1.22775 9.39504C1.18868 9.74247 1.16914 10.2959 1.16914 11.0554V12.1987H0.856545C0.485336 12.1987 0.332945 12.2553 0.164925 12.4532C0.0125338 12.631 -0.0226333 12.8007 0.0125338 13.1925C0.106313 14.2429 0.735414 15.1842 1.65757 15.6569C2.33747 16.0002 1.84904 15.972 7.51095 15.9881L12.5398 15.9962L12.6375 15.8992C12.7587 15.774 12.7665 15.5922 12.6532 15.4872C12.575 15.4145 12.4187 15.4104 7.54221 15.3902L2.51722 15.37L2.26323 15.2731C1.84904 15.1195 1.59896 14.9499 1.28246 14.6226C1.05973 14.3924 0.946417 14.2308 0.840915 14.0045C0.684617 13.6733 0.5713 13.2006 0.590838 12.9703L0.60256 12.8249H10H19.3974L19.4092 12.9703C19.4287 13.2046 19.3115 13.6814 19.1552 14.0126C18.952 14.4408 18.4987 14.9095 18.0845 15.1195C17.5766 15.3781 17.4593 15.3902 15.5173 15.3902H13.7863L13.6925 15.4912C13.5675 15.6165 13.5675 15.77 13.6925 15.8992L13.7902 16.0002L15.658 15.9881C17.7563 15.972 17.7133 15.976 18.3424 15.6528C18.5378 15.5559 18.7879 15.3943 18.9012 15.2973C19.5029 14.7802 19.9171 13.9803 19.9875 13.1925C20.0226 12.8007 19.9875 12.631 19.8351 12.4532C19.6671 12.2553 19.5147 12.1987 19.1474 12.1987H18.8387L18.8191 10.8332C18.7996 9.38696 18.7683 9.07589 18.573 8.24367C18.4206 7.60133 18.2291 7.06806 17.9126 6.40148C16.8068 4.05835 14.814 2.3414 12.3757 1.63038L11.9967 1.52131L12.0202 1.19004C12.0514 0.737569 11.9733 0.507296 11.7193 0.268943C11.6177 0.171986 11.4614 0.0709887 11.3754 0.0467491C11.1761 -0.017889 8.78869 -0.0138493 8.60113 0.0507889ZM11.3324 0.72141C11.395 0.786048 11.4458 0.874925 11.4458 0.915324C11.4458 0.955723 11.3559 2.4424 11.2504 4.21995C11.1449 5.9975 11.055 7.48417 11.055 7.52457C11.055 7.56497 11.0042 7.65385 10.9417 7.71849L10.8284 7.83564H10H9.17162L9.0583 7.71849C8.99578 7.65385 8.94499 7.56497 8.94499 7.52457C8.94499 7.48417 8.85511 5.9975 8.74961 4.21995C8.64411 2.4424 8.55424 0.955723 8.55424 0.915324C8.55424 0.874925 8.60504 0.786048 8.66756 0.72141L8.78087 0.604253H10H11.2191L11.3324 0.72141ZM3.94735 4.85421C4.52565 5.54099 5.10005 6.54692 5.42827 7.44781C5.70961 8.21943 5.93624 9.39908 5.93624 10.0778V10.3323L5.73305 10.3606C5.32277 10.4171 5.0219 10.6353 4.86951 10.9868C4.80308 11.1281 4.78354 11.2776 4.77182 11.6816L4.75619 12.1987H3.25182H1.74745L1.76698 10.8534C1.78652 9.40312 1.81387 9.11628 2.02878 8.26387C2.25151 7.36702 2.62662 6.49844 3.12287 5.72682C3.38076 5.32688 3.80277 4.76533 3.84966 4.76533C3.86138 4.76533 3.90827 4.80573 3.94735 4.85421ZM16.3613 4.99965C17.2601 6.11869 17.8657 7.49629 18.1275 9.00721C18.2057 9.44352 18.2174 9.69803 18.233 10.8534L18.2526 12.1987H16.7482H15.2438L15.2282 11.6856C15.2165 11.2736 15.1969 11.1322 15.1305 10.9868C14.9703 10.6272 14.6811 10.4171 14.263 10.3606L14.052 10.3323L14.0755 9.85962C14.1614 8.24771 14.7476 6.62368 15.7088 5.31072C16.0644 4.82997 16.1113 4.76937 16.1425 4.76533C16.1582 4.76533 16.2558 4.87037 16.3613 4.99965ZM6.90529 11.0271C7.06159 11.1322 7.10848 11.3059 7.10848 11.7705V12.1987H6.22539H5.34231L5.35794 11.7382C5.37748 11.015 5.46735 10.9383 6.30745 10.9585C6.67475 10.9666 6.83887 10.9827 6.90529 11.0271ZM14.4311 11.0393C14.5952 11.1524 14.6499 11.3342 14.6499 11.7947V12.1987H13.7707H12.8915V11.7705C12.8915 11.2089 12.9462 11.0797 13.2432 10.9706C13.2745 10.9585 13.5323 10.9544 13.8098 10.9585C14.2279 10.9666 14.3412 10.9787 14.4311 11.0393Z" fill="#0B0B0B"/>
</svg>
