<svg width="46" height="46" viewBox="0 0 46 46" fill="none" xmlns="http://www.w3.org/2000/svg">
<path d="M41.5154 0.432751C40.9379 0.742096 37.4526 3.02095 37.1742 3.26842C36.968 3.45403 36.803 3.82525 36.5658 4.56768L36.2462 5.59884L30.5129 11.3527L24.7797 17.1065L22.8515 15.1164C21.0263 13.2397 20.9335 13.116 21.0985 12.9407C21.1913 12.8375 21.2635 12.5901 21.2635 12.3941C21.2635 12.0745 21.1294 11.9095 20.0364 10.8062L18.8093 9.56879L19.0981 9.26975C19.5518 8.79542 20.8923 7.86738 21.7584 7.42398C22.8824 6.85685 24.5838 6.31034 26.6874 5.85663C28.131 5.53697 28.5228 5.42354 28.6672 5.23793C29.0281 4.79454 28.8631 4.35114 28.131 3.74276C26.842 2.67036 25.3881 1.9073 23.7382 1.45359C22.769 1.18549 22.604 1.16487 20.6035 1.16487C18.6031 1.17518 18.4381 1.18549 17.5616 1.45359C16.2624 1.85574 14.9219 2.51568 13.9526 3.25811C13.1174 3.88712 5.69303 11.3733 5.45587 11.8167C5.27026 12.1673 5.40431 12.5798 5.82709 12.9819C6.55921 13.6831 6.62107 14.5596 5.97145 15.0236C5.40431 15.4257 4.64126 15.1989 3.96069 14.4255C3.82664 14.2812 3.64104 14.209 3.39356 14.209C3.05328 14.209 2.90892 14.3224 1.72309 15.5186C0.609441 16.6528 0.392898 16.9312 0.186667 17.4571C-0.102057 18.2511 -0.0608104 19.0967 0.320717 19.8288C0.496013 20.1794 1.39312 21.159 3.14608 22.9429C5.9302 25.7682 6.06425 25.861 7.20883 25.861C8.19874 25.861 8.67307 25.5723 10.1373 24.1184C11.3335 22.9119 11.4675 22.7366 11.4675 22.417C11.4675 22.1386 11.3644 21.953 10.9932 21.5508C10.4157 20.9424 10.292 20.4887 10.5498 19.9525C10.756 19.4988 11.3025 19.2204 11.7459 19.3132C11.9212 19.3544 12.3131 19.6122 12.6224 19.8906C13.2308 20.4475 13.5195 20.5093 13.9217 20.2L14.1794 19.9938L14.9837 20.8084C15.4271 21.2518 15.7468 21.6642 15.7159 21.7261C15.6746 21.788 15.6127 22.0251 15.5715 22.2623L15.4993 22.6851L14.4063 23.0769C13.7979 23.2831 13.1689 23.5512 13.0142 23.675C12.8493 23.7884 10.1167 26.5004 6.93042 29.6969C0.67131 35.987 0.784737 35.8529 0.279471 37.5131C-0.0195642 38.4824 -0.0401873 40.0085 0.227913 41.019C0.702244 42.7926 1.98088 44.4012 3.54823 45.2158C4.64126 45.783 5.4868 45.9995 6.68294 45.9995C7.87908 46.0098 8.53902 45.8654 9.67329 45.3292L10.5498 44.9168L16.4067 39.0701C19.6239 35.8632 22.3462 33.0894 22.4596 32.9244C22.5627 32.7492 22.8205 32.1305 23.0268 31.5324C23.233 30.9343 23.4289 30.4187 23.4805 30.3672C23.5217 30.3259 23.7176 30.2847 23.9135 30.2641C24.2538 30.2434 24.4807 30.46 30.3789 36.4819C38.5456 44.8034 38.0816 44.36 39.0406 44.8137C39.814 45.1849 39.8655 45.1952 41.0204 45.1952C42.1753 45.1952 42.2269 45.1849 42.9899 44.824C45.6606 43.5453 46.568 40.1735 44.9079 37.7193C44.6294 37.3069 37.762 30.2538 31.1832 23.6131L28.9043 21.324L34.6582 15.5701L40.412 9.81627L41.2988 9.56879C41.7835 9.43473 42.33 9.2285 42.5053 9.10477C42.6909 8.98103 43.3611 8.07361 44.1345 6.88778C45.7534 4.41301 45.8153 4.27896 45.6606 3.90775C45.4956 3.5056 42.3609 0.412128 42.0516 0.339947C41.9072 0.30901 41.67 0.350258 41.5154 0.432751ZM42.8146 3.26842L43.8355 4.29958L42.7012 6.03193L41.5566 7.76426L40.5976 8.05299L39.6283 8.3314L31.7916 16.1682C27.4813 20.4784 23.9135 24.005 23.8517 24.005C23.7176 24.005 22.0472 22.3345 22.0472 22.2004C22.0472 22.1489 25.5737 18.5708 29.8839 14.2605L37.7104 6.42376L38.0507 5.40292L38.391 4.37177L40.0408 3.30967C40.9482 2.72191 41.7113 2.24758 41.7422 2.24758C41.7731 2.24758 42.2578 2.7116 42.8146 3.26842ZM23.3258 3.06219C23.7692 3.17562 24.5735 3.49528 25.1303 3.75307C26.2646 4.29958 26.3471 4.19647 24.3673 4.72236C21.4388 5.50603 19.5414 6.56813 17.2317 8.72324C16.5099 9.39349 16.5614 9.53785 18.0257 11.0949C18.7062 11.8167 19.2527 12.4354 19.2424 12.4663C19.2218 12.5076 17.9225 13.8481 16.3449 15.4567C13.8288 18.0139 13.4576 18.3645 13.303 18.2511C11.7047 17.0859 9.4155 17.818 8.88962 19.6535C8.64214 20.5093 8.7865 21.3343 9.33301 22.1695L9.51862 22.4582L8.74525 23.2316C8.31217 23.6647 7.82753 24.0565 7.63161 24.1184C6.89949 24.3555 6.78606 24.2731 4.18755 21.6539C1.09408 18.5398 1.09408 18.5501 2.57895 17.024C3.33169 16.261 3.43481 16.1888 3.57917 16.3125C3.94007 16.6425 4.67219 16.89 5.29088 16.89C6.07456 16.89 6.79637 16.5703 7.32226 15.9826C7.85846 15.3948 8.04407 14.8999 8.05438 14.1059C8.05438 13.4562 7.85846 12.8375 7.48724 12.3323C7.38413 12.1879 7.68316 11.8373 9.74547 9.70284C12.9008 6.4547 14.6744 4.72236 15.2415 4.34083C16.283 3.63964 17.6647 3.07251 18.9537 2.82503C19.0981 2.80441 19.9539 2.79409 20.8613 2.81472C22.14 2.83534 22.6865 2.8869 23.3258 3.06219ZM21.7378 16.3332L23.6248 18.2511L22.2224 19.6432L20.8304 21.0455L20.4386 20.7053C20.222 20.5197 19.8405 20.2722 19.593 20.1691C19.0156 19.9113 17.9328 19.901 17.3245 20.1484L16.8708 20.3237L16.1593 19.6122C15.7674 19.2204 15.4478 18.8595 15.4478 18.7976C15.4478 18.6945 19.6755 14.4152 19.7889 14.4152C19.8199 14.4152 20.6963 15.2814 21.7378 16.3332ZM18.83 21.6333C19.0671 21.6333 23.996 26.5622 24.1713 26.9747C24.5838 27.913 23.6867 28.9133 22.6452 28.6967C22.3771 28.6348 21.7275 28.0471 19.7683 26.0776C17.5926 23.9018 17.211 23.4894 17.1595 23.1594C17.077 22.7263 17.2626 22.2004 17.5926 21.9117C17.8297 21.6952 18.3247 21.5302 18.5206 21.5921C18.6031 21.6127 18.7371 21.6333 18.83 21.6333ZM38.8034 33.7184C44.0932 39.1011 44.0623 39.0598 44.0623 40.4416C44.0623 41.1428 44.0211 41.3696 43.7736 41.8646C43.4642 42.4936 43.0105 42.9473 42.33 43.3082C41.9794 43.5041 41.7319 43.5453 41.0204 43.5453C40.278 43.5453 40.0717 43.5041 39.6283 43.2669C39.2262 43.0607 37.4732 41.3387 32.3071 36.0592C28.5641 32.2439 25.5118 29.0782 25.5221 29.0164C25.5325 28.9545 25.6356 28.6452 25.749 28.3358C25.8624 28.0265 25.9552 27.6243 25.9655 27.449C25.9655 26.9437 25.6871 26.1394 25.3365 25.6548L25.0169 25.2114L26.378 23.8503L27.7494 22.4788L30.9563 25.7373C32.7299 27.5418 36.2565 31.1302 38.8034 33.7184ZM18.634 27.449L21.6656 30.4806L21.3769 31.2849L21.0882 32.0995L15.4065 37.7812C9.97233 43.2257 9.69392 43.4835 8.95148 43.8444C6.96136 44.793 4.71344 44.4218 3.16671 42.8854C1.63028 41.3387 1.25907 39.0908 2.20773 37.1006C2.56863 36.3582 2.82642 36.0798 8.27092 30.6456L13.9526 24.9536L14.726 24.6958C15.1487 24.5515 15.5199 24.4277 15.5509 24.4277C15.5818 24.4174 16.9636 25.7785 18.634 27.449Z" fill="#0B0B0B"/>
<path d="M12.179 32.6977C8.86903 35.9974 8.53906 36.3583 8.53906 36.6676C8.53906 37.1213 8.9309 37.5132 9.38461 37.5132C9.69396 37.5132 10.0549 37.1832 13.3546 33.8732C16.6646 30.5735 16.9945 30.2126 16.9945 29.9033C16.9945 29.6764 16.912 29.4805 16.7367 29.3155C16.5718 29.1402 16.3758 29.0577 16.149 29.0577C15.8396 29.0577 15.4787 29.3877 12.179 32.6977Z" fill="#EE0D09"/>
<path d="M5.84841 39.019C5.35345 39.5036 4.88943 40.0398 4.82756 40.1945C4.56977 40.8029 5.25034 41.4834 5.85872 41.2257C6.01339 41.1638 6.54959 40.6998 7.03423 40.2048C8.03445 39.1737 8.14788 38.8643 7.66324 38.39C7.18891 37.9053 6.87956 38.0188 5.84841 39.019Z" fill="#EE0D09"/>
</svg>
