<svg width="28" height="30" viewBox="0 0 28 30" fill="none" xmlns="http://www.w3.org/2000/svg">
<path d="M9.1884 3.66251C6.80354 5.67821 4.78783 7.3775 4.71166 7.43609L4.57689 7.55328L4.82885 7.8697C4.96948 8.04549 5.10425 8.19198 5.13355 8.19784C5.15699 8.19784 6.09453 7.42437 7.21371 6.48098C8.33289 5.54344 10.208 3.96721 11.374 2.98279C12.5459 1.99838 13.5245 1.19561 13.5538 1.19561C13.589 1.19561 16.384 3.52774 19.765 6.3755C25.2261 10.9694 25.9117 11.5671 25.8414 11.6491C25.8004 11.7019 25.5601 11.989 25.3082 12.2878C25.021 12.6277 24.8277 12.8152 24.7867 12.7859C24.7456 12.7625 22.2143 10.6354 19.1556 8.06307C15.7863 5.22702 13.5655 3.39882 13.5186 3.4164C13.4718 3.43398 10.9521 5.53758 7.91686 8.09823C4.87573 10.653 2.36196 12.7625 2.32094 12.7859C2.27992 12.8152 2.0807 12.6218 1.79944 12.2878C1.54747 11.989 1.30723 11.7019 1.26621 11.6491C1.1959 11.5671 1.3834 11.3913 2.77213 10.2253C3.63935 9.49281 4.36594 8.86583 4.38938 8.83654C4.41868 8.7838 4.35422 8.68419 3.99679 8.23886C3.90303 8.12752 3.84444 8.16854 1.92835 9.77993C0.721269 10.7936 -0.0229006 11.4616 0.000537847 11.5027C0.12359 11.7077 2.14515 14.0633 2.18617 14.0457C2.23305 14.0281 3.28192 13.1492 10.9346 6.7095L13.5538 4.50043L19.2142 9.26429C22.3256 11.8835 24.8921 14.034 24.9214 14.0457C24.9449 14.0574 25.4605 13.4773 26.0641 12.7625L27.1598 11.4616L27.0192 11.3327C26.8258 11.1452 13.5597 -0.00560474 13.5421 0.000254631C13.5304 0.000254631 11.5733 1.65266 9.1884 3.66251Z" fill="#0B0B0B"/>
<path d="M13.0971 8.94133C12.9037 9.0761 12.5463 9.38666 12.3119 9.63863C10.9524 11.0859 10.7239 13.2188 11.7376 14.9298C12.0013 15.3693 12.4818 15.9084 12.8451 16.1779L13.0853 16.3537V18.3167V20.2797L12.7396 19.9281L12.3881 19.5765L12.4408 19.137C12.5404 18.2522 12.3119 17.221 11.8431 16.4123C11.556 15.9201 10.7884 15.1467 10.3138 14.8654C9.51099 14.3908 8.39766 14.1564 7.52458 14.2677C6.65736 14.379 6.61048 14.4025 6.52845 14.7541C6.48743 14.924 6.44055 15.3166 6.42297 15.6213C6.27648 18.2933 8.46212 20.4437 11.1517 20.2914L11.7728 20.2562L12.4291 20.9125L13.0853 21.5688L13.0971 22.477L13.1146 23.3853H13.5541H13.9936L14.0112 22.477L14.0229 21.5688L14.6792 20.9125L15.3354 20.2562L15.9565 20.2914C18.6461 20.4437 20.8317 18.2933 20.6852 15.6213C20.6677 15.3166 20.6208 14.924 20.5798 14.7541C20.4977 14.4025 20.4509 14.379 19.5836 14.2677C18.7106 14.1564 17.5972 14.3908 16.7945 14.8654C16.3198 15.1467 15.5522 15.9201 15.2651 16.4123C14.7905 17.221 14.5678 18.2405 14.6674 19.1195L14.7202 19.5765L14.3686 19.9281L14.0229 20.2797V18.3167V16.3537L14.228 16.2131C14.5502 15.9904 15.1069 15.3693 15.3647 14.9298C16.3843 13.2188 16.1499 11.0801 14.7905 9.63277C14.3452 9.15814 13.7416 8.70695 13.5541 8.70695C13.4955 8.70695 13.2904 8.81242 13.0971 8.94133ZM13.9526 10.0254C14.3979 10.4414 14.7378 10.957 14.937 11.5489C15.0717 11.9415 15.0952 12.1231 15.101 12.6329C15.101 13.5294 14.8667 14.2208 14.3041 14.924L14.0522 15.2404L14.0229 14.4201L13.9936 13.5997H13.5541H13.1146L13.0853 14.4201L13.056 15.2404L12.8041 14.924C12.2416 14.2208 12.0072 13.5353 12.0072 12.6329C12.0072 12.1055 12.0365 11.9473 12.183 11.5196C12.2826 11.2442 12.4584 10.8691 12.5814 10.6875C12.7924 10.3652 13.4486 9.70308 13.5541 9.70308C13.5834 9.70308 13.7651 9.84957 13.9526 10.0254ZM8.95432 15.2463C10.3958 15.6154 11.4271 16.8811 11.5853 18.4925L11.6204 18.8089L11.0169 18.2112L10.4134 17.6135L10.0969 17.9358L9.78053 18.2581L10.3606 18.8441L10.9466 19.43H10.7415C10.343 19.4242 9.71021 19.2542 9.22387 19.014C8.3918 18.6038 7.79412 17.8948 7.45426 16.928C7.32535 16.5588 7.24332 15.7033 7.30777 15.3693C7.34293 15.1818 7.36637 15.1584 7.5656 15.1349C7.89373 15.0939 8.56173 15.1467 8.95432 15.2463ZM19.7653 15.1935C19.7829 15.2052 19.7946 15.5158 19.7946 15.8732C19.7946 16.6057 19.7184 16.8928 19.361 17.5842C19.0856 18.1175 18.5172 18.6917 17.9605 18.9788C17.5035 19.2191 16.7769 19.43 16.4019 19.43H16.1616L16.7476 18.8441L17.3277 18.2581L17.0113 17.9358L16.6949 17.6135L16.0855 18.2112L15.4819 18.8148L15.5171 18.4925C15.5815 17.9124 15.6694 17.5901 15.9097 17.092C16.5132 15.8264 17.9078 15.0295 19.3258 15.1349C19.5543 15.1467 19.7477 15.176 19.7653 15.1935Z" fill="#0B0B0B"/>
<path d="M2.71289 19.5945V24.1943H3.15236H3.59183V19.5945V14.9948H3.15236H2.71289V19.5945Z" fill="#0B0B0B"/>
<path d="M23.5156 19.5945V24.1943H23.9551H24.3946V19.5945V14.9948H23.9551H23.5156V19.5945Z" fill="#0B0B0B"/>
<path d="M1.07227 27.7687V29.9954H13.5532H26.0342V27.7687V25.5421H23.163H20.2918V25.9815V26.421H22.7235H25.1552V27.7687V29.1164H13.5532H1.95121V27.7687V26.421L10.6703 26.4093L19.3835 26.3917L19.4011 25.964L19.4187 25.5421H10.2425H1.07227V27.7687Z" fill="#0B0B0B"/>
</svg>
