<svg width="80" height="86" viewBox="0 0 80 86" fill="none" xmlns="http://www.w3.org/2000/svg">
<path d="M29.1845 0.0915451C19.3396 1.48357 11.7086 8.5779 9.56186 18.2886C9.32706 19.3619 9.2432 20.754 9.17612 25.0642L9.07549 30.515L7.81763 30.7162C4.24531 31.32 1.15937 34.2214 0.253708 37.8273C-0.0817205 39.1187 -0.0817205 53.7602 0.236937 56.1753C1.42771 64.8629 5.956 72.5442 13.0335 77.8272C22.4759 84.8712 35.0545 86.0955 45.8217 81.0138L47.6666 80.1417L48.4884 80.8796C54.8783 86.6825 64.3374 87.3869 71.5659 82.6406C73.4275 81.3995 73.763 81.0473 73.6959 80.3094C73.6288 79.5714 72.9747 78.9844 72.3541 79.1354C72.1529 79.2025 71.5156 79.5882 70.9621 80.0075C67.4401 82.6574 62.7609 83.7811 58.4171 83.0264C51.1047 81.7517 45.5198 75.7308 44.9161 68.4687C44.5806 64.5107 45.6037 60.6365 47.8175 57.5338C48.6393 56.3765 50.8196 54.2298 51.9265 53.4751C53.6372 52.3178 56.002 51.3451 58.2158 50.8923C59.5072 50.6239 62.7944 50.6239 64.0858 50.8923C74.9537 53.1229 80.6728 64.6281 75.7252 74.3555C75.2724 75.2276 74.9034 76.1333 74.9034 76.3513C74.9034 77.3241 76.3458 77.7769 77.0334 77.0389C77.4862 76.5358 78.4422 74.6239 78.9789 73.1312C80.4044 69.1228 80.3374 64.2256 78.7776 60.2004C77.8049 57.6847 75.742 54.6658 73.83 52.9887C71.5827 51.0097 68.4967 49.3828 65.6623 48.6952L64.1697 48.3262V43.7812C64.1697 38.733 64.0523 37.7938 63.264 36.0663C61.9055 33.1481 59.0712 31.0349 56.002 30.6659L55.1131 30.5653V26.8588C55.1131 22.2802 54.8951 19.6471 54.3584 17.3997C52.2955 8.82947 45.2515 2.10412 36.48 0.343117C34.9874 0.0412292 30.61 -0.109711 29.1845 0.0915451ZM36.1278 2.84206C44.0607 4.55275 50.1991 10.5402 52.0104 18.3221C52.4129 20.0496 52.6142 23.32 52.5638 27.0936L52.5135 30.5317L49.9643 30.582L47.4318 30.6324L47.3479 25.4667C47.2641 19.798 47.1467 19.0097 46.0565 16.5779C45.0335 14.3137 43.0377 11.8986 40.9412 10.3892C39.8175 9.56741 37.3354 8.39341 36.0104 8.05798C32.3878 7.13555 28.1614 7.62193 24.958 9.33261C21.9224 10.9427 19.6583 13.341 18.1992 16.4269C16.9916 19.0097 16.8407 19.9825 16.7568 25.6177L16.673 30.6156H14.174H11.6751V25.7686C11.6751 22.2299 11.7421 20.5527 11.9266 19.4961C12.6813 15.1188 14.7107 11.3116 17.8805 8.24247C21.2348 5.00558 24.8574 3.29489 29.8721 2.54018C30.8784 2.38923 34.9371 2.59049 36.1278 2.84206ZM34.9371 10.4228C38.5429 11.211 41.8469 13.7938 43.457 17.0978C44.7148 19.6471 44.7651 19.9825 44.849 25.6177L44.9161 30.6156H39.7001C34.5681 30.6156 34.501 30.6156 34.1488 30.9846C33.5283 31.6554 33.7798 32.6282 34.6687 32.9468C35.0377 33.081 38.4255 33.1313 45.5534 33.1313C57.0921 33.1313 56.807 33.0978 58.568 34.2885C59.7085 35.0432 60.6812 36.2508 61.2011 37.5254C61.5366 38.3472 61.5701 38.7665 61.6204 43.2277L61.6707 48.0579H61.285C60.2284 48.0747 57.6121 48.4269 56.4213 48.7287C48.7735 50.691 43.0377 57.4499 42.4003 65.2822C42.0481 69.4415 42.9203 73.1983 45.067 76.7538C45.5198 77.5085 45.872 78.1459 45.8553 78.1626C45.5534 78.431 43.0377 79.5379 41.6959 80.0075C36.7316 81.7182 30.9622 82.0536 25.7128 80.9299C21.218 79.9572 16.7568 77.7433 13.1006 74.7077C6.99583 69.6092 3.27257 62.3807 2.61848 54.3639C2.40045 51.6302 2.40045 40.2592 2.61848 38.9174C2.97068 36.7036 4.58074 34.624 6.64363 33.6512L7.56606 33.2152L18.6855 33.1313L29.8218 33.0474L30.1404 32.6449C30.5094 32.1753 30.5597 31.4877 30.2243 31.0181C29.9895 30.7162 29.6876 30.6994 24.6394 30.6156L19.3061 30.5317L19.2558 26.5904C19.2222 24.3934 19.2893 22.0286 19.3899 21.2403C19.9602 16.9469 22.543 13.3578 26.5346 11.362C29.0335 10.1041 32.0188 9.76867 34.9371 10.4228Z" fill="#535353"/>
<path d="M30.1224 42.775C26.9526 43.6807 24.7387 46.1461 24.2524 49.3159C23.9002 51.5633 24.722 54.1293 26.3656 55.8735L27.137 56.6953L26.4326 61.2907C25.6779 66.2551 25.6779 66.5234 26.5333 66.8421C26.7681 66.9427 29.1999 67.0098 32.2356 67.0098H37.5186L37.9211 66.5905C38.1727 66.3557 38.3404 65.9867 38.3404 65.7184C38.3404 65.4668 38.0385 63.3368 37.6695 60.9888L37.0154 56.7289L37.8372 55.8232C40.7387 52.6366 40.6716 47.8735 37.6863 44.8882C36.5961 43.7981 35.4557 43.144 34.0636 42.775C32.8896 42.4731 31.1622 42.4731 30.1224 42.775ZM34.4326 45.5926C36.3613 46.5821 37.4179 48.2761 37.4179 50.406C37.4179 51.4962 37.3509 51.8316 36.8645 52.8044C36.4452 53.6262 36.0762 54.1125 35.4892 54.5654C35.0532 54.9008 34.6003 55.3536 34.4997 55.5549C34.3655 55.84 34.4829 56.9469 34.9861 60.1335C35.355 62.4647 35.6569 64.3934 35.6569 64.427C35.6569 64.4605 34.0301 64.494 32.0511 64.494H28.4452L28.5291 64.1083C28.6465 63.5548 29.7869 56.1083 29.7869 55.8232C29.7869 55.689 29.3341 55.1524 28.7639 54.6324C27.506 53.4584 27.0196 52.6366 26.7681 51.2782C26.332 48.8463 27.6905 46.448 30.0553 45.4417C31.397 44.8715 33.1412 44.9385 34.4326 45.5926Z" fill="#535353"/>
<path d="M58.9363 55.253C56.4877 56.2257 54.8944 58.188 54.5254 60.6869C54.3745 61.6764 54.6428 62.3808 55.2801 62.6492C56.2361 63.0349 56.8399 62.4982 57.0244 61.0894C57.1418 60.0496 57.6281 59.1439 58.3996 58.4563C59.2717 57.7016 59.9594 57.45 61.1501 57.45C62.3577 57.45 63.213 57.7687 63.9678 58.5066C66.5506 60.972 65.1418 65.2152 61.6365 65.6177C61.0663 65.668 60.5799 65.8357 60.3619 66.0538C59.9929 66.3892 59.9761 66.4898 59.9761 69.7938V73.1984L60.4122 73.5338C60.9992 73.9867 61.3682 73.9699 61.9384 73.4835L62.408 73.081L62.4583 70.5485C62.5086 68.6198 62.5757 68.016 62.7267 68.016C62.8441 68.016 63.4814 67.7477 64.1187 67.429C65.561 66.7079 66.5338 65.7016 67.2382 64.1921C67.7246 63.1859 67.7749 62.9175 67.7581 61.559C67.7413 59.5465 67.322 58.4563 65.9971 57.0475C64.6051 55.5548 63.4478 55.0349 61.3179 54.9846C60.0768 54.9511 59.5569 55.0014 58.9363 55.253Z" fill="#535353"/>
<path d="M60.3128 76.9045C59.8096 77.4077 59.8599 78.2966 60.4134 78.7326C60.9836 79.1854 61.3694 79.1687 61.9228 78.6991C62.8285 77.9108 62.3253 76.5691 61.1346 76.5691C60.8662 76.5691 60.4973 76.72 60.3128 76.9045Z" fill="#535353"/>
</svg>
