<svg width="150" height="30" viewBox="0 0 150 30" fill="none" xmlns="http://www.w3.org/2000/svg">
<path d="M131.287 23.9982V5.80078H133.367L140.932 18.253H139.58L147.145 5.80078H149.225V23.9982H146.235V11.052L146.911 11.234L141.296 20.4627H139.216L133.601 11.234L134.277 11.052V23.9982H131.287Z" fill="white"/>
<path d="M119.058 24.2581C117.688 24.2581 116.458 23.9462 115.366 23.3223C114.274 22.6984 113.408 21.8491 112.766 20.7746C112.143 19.6828 111.831 18.4523 111.831 17.0832V5.80078H114.82V17.0572C114.82 17.941 115.002 18.7123 115.366 19.3708C115.747 20.0121 116.259 20.5147 116.9 20.8786C117.541 21.2252 118.26 21.3985 119.058 21.3985C119.872 21.3985 120.591 21.2252 121.215 20.8786C121.839 20.5147 122.333 20.0121 122.697 19.3708C123.061 18.7123 123.243 17.9497 123.243 17.0832V5.80078H126.233V17.1092C126.233 18.4783 125.921 19.7001 125.297 20.7746C124.673 21.8491 123.824 22.6984 122.749 23.3223C121.674 23.9462 120.444 24.2581 119.058 24.2581Z" fill="white"/>
<path d="M103.809 23.9982V5.80078H106.798V23.9982H103.809Z" fill="white"/>
<path d="M85.3193 23.9982V21.2686H90.1026C91.3505 21.2686 92.4423 20.9999 93.3782 20.4627C94.3314 19.9254 95.0679 19.1802 95.5879 18.227C96.1251 17.2565 96.3937 16.1386 96.3937 14.8735C96.3937 13.6257 96.1251 12.5251 95.5879 11.572C95.0506 10.6188 94.3054 9.87353 93.3522 9.33627C92.4163 8.79902 91.3331 8.53039 90.1026 8.53039H85.3193V5.80078H90.1806C91.4978 5.80078 92.7196 6.03475 93.8461 6.50268C94.9726 6.95328 95.9518 7.59452 96.7837 8.4264C97.6329 9.24095 98.2915 10.2028 98.7594 11.312C99.2273 12.4038 99.4613 13.5997 99.4613 14.8995C99.4613 16.182 99.2273 17.3778 98.7594 18.487C98.2915 19.5961 97.6416 20.5667 96.8097 21.3985C95.9778 22.2131 94.9986 22.8543 93.8721 23.3223C92.7456 23.7729 91.5324 23.9982 90.2326 23.9982H85.3193ZM83.2656 23.9982V5.80078H86.2552V23.9982H83.2656Z" fill="white"/>
<path d="M67.6719 23.9982V5.80078H70.6614V23.9982H67.6719ZM69.7256 23.9982V21.2686H79.2402V23.9982H69.7256Z" fill="white"/>
<path d="M59.4429 23.9983V12.0005H62.4324V23.9983H59.4429Z" fill="white"/>
<path d="M59.4409 9V5.80078H62.4309V9H59.4409Z" fill="#F5B315"/>
<path d="M44.0244 23.9982V21.3985H49.2497C50.1682 21.3985 50.8788 21.1126 51.3814 20.5407C51.8839 19.9687 52.1352 19.3102 52.1352 18.5649C52.1352 18.0624 52.0226 17.5944 51.7973 17.1612C51.572 16.7279 51.2427 16.3813 50.8094 16.1213C50.3762 15.8613 49.8562 15.7314 49.2497 15.7314H44.0244V13.1317H48.8077C49.5876 13.1317 50.2115 12.9324 50.6795 12.5338C51.1474 12.1352 51.3814 11.546 51.3814 10.7661C51.3814 9.98618 51.1474 9.39693 50.6795 8.99832C50.2115 8.59971 49.5876 8.40041 48.8077 8.40041H44.0244V5.80078H48.8857C50.1162 5.80078 51.1387 6.02608 51.9533 6.47668C52.7678 6.92729 53.3744 7.50787 53.773 8.21843C54.1716 8.929 54.3709 9.69156 54.3709 10.5061C54.3709 11.4593 54.1023 12.2998 53.565 13.0277C53.0451 13.7556 52.2739 14.3449 51.2514 14.7955L51.4853 13.8596C52.6292 14.3276 53.5217 14.9861 54.163 15.8353C54.8042 16.6846 55.1248 17.6811 55.1248 18.8249C55.1248 19.7608 54.8908 20.6187 54.4229 21.3985C53.9723 22.1784 53.2964 22.811 52.3952 23.2963C51.5113 23.7642 50.4195 23.9982 49.1197 23.9982H44.0244ZM41.9707 23.9982V5.80078H44.9603V23.9982H41.9707Z" fill="white"/>
<circle cx="14.9978" cy="14.9998" r="14.9978" fill="#F5B315"/>
<path d="M17.5687 10.3338L14.1406 7.00098V10.3338H8.99854V18.666L12.4266 21.9988V13.6667H17.5687V18.666L20.9968 21.9988V13.6667L17.5687 10.3338Z" fill="black"/>
</svg>
