<?xml version="1.0" encoding="UTF-8"?>
<svg id="Layer_2" data-name="Layer 2" xmlns="http://www.w3.org/2000/svg" viewBox="0 0 361.63 160.94">
  <defs>
    <style>
      .cls-1 {
        fill: #fff;
      }
    </style>
  </defs>
  <g id="Layer_1-2" data-name="Layer 1">
    <g>
      <polygon class="cls-1" points="46.71 0 46.71 118.77 16.56 118.77 16.56 23.42 46.71 0"/>
      <polygon class="cls-1" points="82.54 61.01 82.54 118.77 52.39 118.77 52.39 37.59 82.54 61.01"/>
      <polygon class="cls-1" points="12.61 62.9 12.61 118.78 0 118.78 0 72.69 12.61 62.9"/>
      <polygon class="cls-1" points="150.12 62.35 150.12 118.78 137.2 118.78 137.2 85.12 128.7 97.11 116.81 97.11 108.39 85.12 108.39 118.78 95.39 118.78 95.39 62.35 106.69 62.35 123.09 85.04 138.73 62.35 150.12 62.35"/>
      <polygon class="cls-1" points="219.55 74.42 178.84 74.42 178.84 84.53 209.09 84.53 209.09 96.51 178.84 96.51 178.84 106.79 219.55 106.79 219.55 118.78 165.84 118.78 165.84 62.35 219.55 62.35 219.55 74.42"/>
      <polygon class="cls-1" points="246.74 84.53 275.55 84.53 275.55 62.35 288.46 62.35 288.46 118.77 275.55 118.77 275.55 96.51 246.74 96.51 246.74 118.77 233.74 118.77 233.74 62.35 246.74 62.35 246.74 84.53"/>
      <path class="cls-1" d="M339.28,62.35l22.35,56.43h-14.02l-5.44-13.85h-23.54l-5.35,13.85h-13.85l22.43-56.43h17.42ZM323.05,92.94h14.7l-7.48-18.01-7.22,18.01Z"/>
      <path class="cls-1" d="M2.7,153.48v7.13H0v-16.74h11.47c3.02,0,4.59,2.24,4.59,4.81,0,2.37-1.24,4.54-4.03,4.77h-.35l4.13,7.16h-3l-4.11-7.13H2.7ZM11.47,150.99c1.36,0,1.87-.98,1.87-2.27,0-1.21-.56-2.37-1.87-2.37H2.7v4.64h8.77Z"/>
      <path class="cls-1" d="M43.05,158.14v2.47h-15.4v-16.74h15.4v2.47h-12.7v4.64h9.45v2.5h-9.45v4.66h12.7ZM34.79,136.39h2.22l-2.34,3.35h-1.44l1.56-3.35Z"/>
      <polygon class="cls-1" points="57.52 148.16 57.52 160.61 54.82 160.61 54.82 143.88 57.37 143.88 67.86 156.33 67.86 143.88 70.55 143.88 70.55 160.61 68.01 160.61 57.52 148.16"/>
      <path class="cls-1" d="M90.16,143.55c5.22,0,8.22,4.18,8.22,8.72s-3,8.67-8.22,8.67-8.17-4.21-8.17-8.67,2.97-8.72,8.17-8.72M90.16,158.27c3.43,0,5.37-2.97,5.37-6s-1.92-6.1-5.37-6.1-5.27,3.02-5.27,6.07,1.87,6.02,5.27,6.02"/>
      <polygon class="cls-1" points="110.3 143.75 116.07 157.06 122 143.75 124.92 143.75 117.36 160.61 114.71 160.61 107.43 143.75 110.3 143.75"/>
      <path class="cls-1" d="M145.89,160.62l-1.92-4.34h-7.91l-1.86,4.34h-2.88l7.29-16.86h2.65l7.56,16.86h-2.92ZM143.1,153.84l-3.15-7.03-2.95,7.03h6.1Z"/>
      <polygon class="cls-1" points="172.26 143.88 172.26 146.35 165.76 146.35 165.76 160.62 163.06 160.62 163.06 146.35 156.53 146.35 156.53 143.88 172.26 143.88"/>
      <rect class="cls-1" x="183.4" y="143.88" width="2.7" height="16.74"/>
      <path class="cls-1" d="M205.71,143.55c5.22,0,8.22,4.18,8.22,8.72s-3,8.67-8.22,8.67-8.17-4.21-8.17-8.67,2.97-8.72,8.17-8.72M205.71,158.27c3.43,0,5.37-2.97,5.37-6s-1.92-6.1-5.37-6.1-5.27,3.02-5.27,6.07,1.87,6.02,5.27,6.02"/>
      <polygon class="cls-1" points="228.09 148.16 228.09 160.61 225.39 160.61 225.39 143.88 227.94 143.88 238.42 156.33 238.42 143.88 241.12 143.88 241.12 160.61 238.58 160.61 228.09 148.16"/>
      <path class="cls-1" d="M276.11,160.94c-3.13,0-7.36-1.01-7.89-4.61l-.05-.3h2.7l.05.2c.43,1.74,3.13,2.24,4.91,2.24,2.04,0,4.71-.6,4.71-2.72s-3.2-2.44-4.81-2.44c-3.25,0-7.23-.45-7.23-4.64,0-3.78,3.43-5.12,6.83-5.12,3.1,0,7.11,1.03,7.56,4.61l.05.28h-2.7l-.05-.18c-.38-1.71-2.92-2.24-4.66-2.24-1.89,0-4.31.6-4.31,2.54,0,2.04,2.9,2.27,4.39,2.27,3.35,0,7.66.46,7.66,4.79,0,3.98-3.66,5.32-7.16,5.32"/>
      <path class="cls-1" d="M310.66,160.62h-2.92l-1.92-4.33h-7.91l-1.86,4.33h-2.88l7.29-16.86h2.65l7.56,16.86ZM304.94,153.83l-3.13-6.98-2.97,6.98h6.1ZM302.25,136.39l1.54,3.35h-1.39l-2.35-3.35h2.19Z"/>
      <path class="cls-1" d="M324.2,153.48v7.13h-2.7v-16.74h11.47c3.02,0,4.59,2.24,4.59,4.81,0,2.37-1.24,4.54-4.03,4.77h-.35l4.13,7.16h-3l-4.11-7.13h-6ZM332.97,150.99c1.36,0,1.87-.98,1.87-2.27,0-1.21-.56-2.37-1.87-2.37h-8.77v4.64h8.77Z"/>
      <polygon class="cls-1" points="349.15 143.88 351.85 143.88 351.85 158.15 361.63 158.15 361.63 160.62 349.15 160.62 349.15 143.88"/>
      <rect class="cls-1" x="0" y="128.41" width="361.63" height="2.72"/>
    </g>
  </g>
</svg>