<svg width="1200" height="630" viewBox="0 0 1200 630" fill="none" xmlns="http://www.w3.org/2000/svg">
<rect width="1200" height="630" fill="white"/>
<rect width="1200" height="630" fill="url(#paint0_linear_49_163)"/>
<path d="M180.961 420V369.888H192.265V420H180.961ZM165.049 379.032V369.168H208.177V379.032H165.049ZM223.13 399.048V390.696H233.858C236.114 390.696 237.842 390.12 239.042 388.968C240.29 387.816 240.914 386.256 240.914 384.288C240.914 382.464 240.314 380.952 239.114 379.752C237.914 378.552 236.186 377.952 233.93 377.952H223.13V369.168H235.226C238.586 369.168 241.538 369.816 244.082 371.112C246.626 372.36 248.618 374.112 250.058 376.368C251.498 378.624 252.218 381.216 252.218 384.144C252.218 387.12 251.498 389.736 250.058 391.992C248.618 394.2 246.602 395.928 244.01 397.176C241.418 398.424 238.37 399.048 234.866 399.048H223.13ZM214.49 420V369.168H225.794V420H214.49ZM242.138 420L226.298 398.112L236.666 395.304L255.53 420H242.138ZM255.041 420L275.201 369.168H285.425L305.369 420H293.417L278.153 377.808H282.257L266.777 420H255.041ZM266.489 410.784V401.568H294.209V410.784H266.489ZM310.748 420V369.168H318.668L322.052 379.32V420H310.748ZM345.812 420L315.86 381.624L318.668 369.168L348.62 407.544L345.812 420ZM345.812 420L342.788 409.848V369.168H354.092V420H345.812ZM378.183 420.792C374.007 420.792 370.407 420.12 367.383 418.776C364.407 417.384 361.671 415.296 359.175 412.512L366.519 405.24C368.151 407.112 369.951 408.576 371.919 409.632C373.935 410.64 376.263 411.144 378.903 411.144C381.303 411.144 383.151 410.712 384.447 409.848C385.791 408.984 386.463 407.784 386.463 406.248C386.463 404.856 386.031 403.728 385.167 402.864C384.303 402 383.151 401.256 381.711 400.632C380.319 400.008 378.759 399.408 377.031 398.832C375.351 398.256 373.671 397.608 371.991 396.888C370.311 396.12 368.751 395.184 367.311 394.08C365.919 392.928 364.791 391.512 363.927 389.832C363.063 388.104 362.631 385.944 362.631 383.352C362.631 380.232 363.375 377.544 364.863 375.288C366.399 373.032 368.511 371.328 371.199 370.176C373.887 368.976 376.983 368.376 380.487 368.376C384.039 368.376 387.279 369 390.207 370.248C393.183 371.496 395.631 373.2 397.551 375.36L390.207 382.632C388.671 381.048 387.111 379.872 385.527 379.104C383.991 378.336 382.239 377.952 380.271 377.952C378.303 377.952 376.743 378.336 375.591 379.104C374.439 379.824 373.863 380.88 373.863 382.272C373.863 383.568 374.295 384.624 375.159 385.44C376.023 386.208 377.151 386.88 378.543 387.456C379.983 388.032 381.543 388.608 383.223 389.184C384.951 389.76 386.655 390.432 388.335 391.2C390.015 391.968 391.551 392.952 392.943 394.152C394.383 395.304 395.535 396.792 396.399 398.616C397.263 400.392 397.695 402.6 397.695 405.24C397.695 410.088 395.967 413.904 392.511 416.688C389.055 419.424 384.279 420.792 378.183 420.792ZM404.896 420V369.168H416.2V420H404.896ZM413.536 400.056V390.336H438.952V400.056H413.536ZM413.536 378.888V369.168H440.104V378.888H413.536ZM471.066 420.864C467.226 420.864 463.674 420.192 460.41 418.848C457.194 417.504 454.362 415.632 451.914 413.232C449.466 410.832 447.57 408.048 446.226 404.88C444.882 401.664 444.21 398.208 444.21 394.512C444.21 390.768 444.882 387.312 446.226 384.144C447.57 380.976 449.442 378.216 451.842 375.864C454.242 373.464 457.05 371.616 460.266 370.32C463.53 368.976 467.082 368.304 470.922 368.304C474.714 368.304 478.218 368.976 481.434 370.32C484.698 371.616 487.53 373.464 489.93 375.864C492.378 378.216 494.274 381 495.618 384.216C496.962 387.384 497.634 390.84 497.634 394.584C497.634 398.28 496.962 401.736 495.618 404.952C494.274 408.12 492.402 410.904 490.002 413.304C487.602 415.656 484.77 417.504 481.506 418.848C478.29 420.192 474.81 420.864 471.066 420.864ZM470.922 410.568C473.946 410.568 476.586 409.896 478.842 408.552C481.146 407.208 482.922 405.336 484.17 402.936C485.418 400.488 486.042 397.68 486.042 394.512C486.042 392.112 485.682 389.952 484.962 388.032C484.242 386.064 483.21 384.384 481.866 382.992C480.522 381.552 478.914 380.472 477.042 379.752C475.218 378.984 473.178 378.6 470.922 378.6C467.898 378.6 465.234 379.272 462.93 380.616C460.674 381.912 458.922 383.76 457.674 386.16C456.426 388.512 455.802 391.296 455.802 394.512C455.802 396.912 456.162 399.096 456.882 401.064C457.602 403.032 458.61 404.736 459.906 406.176C461.25 407.568 462.858 408.648 464.73 409.416C466.602 410.184 468.666 410.568 470.922 410.568ZM513.45 399.048V390.696H524.178C526.434 390.696 528.162 390.12 529.362 388.968C530.61 387.816 531.234 386.256 531.234 384.288C531.234 382.464 530.634 380.952 529.434 379.752C528.234 378.552 526.506 377.952 524.25 377.952H513.45V369.168H525.546C528.906 369.168 531.858 369.816 534.402 371.112C536.946 372.36 538.938 374.112 540.378 376.368C541.818 378.624 542.538 381.216 542.538 384.144C542.538 387.12 541.818 389.736 540.378 391.992C538.938 394.2 536.922 395.928 534.33 397.176C531.738 398.424 528.69 399.048 525.186 399.048H513.45ZM504.81 420V369.168H516.114V420H504.81ZM532.458 420L516.618 398.112L526.986 395.304L545.85 420H532.458ZM550.794 420V369.168H558.858L578.874 400.344H574.77L594.714 369.168H602.85V420H591.546V388.248L593.562 388.752L580.53 409.056H573.042L560.082 388.752L562.026 388.248V420H550.794ZM636.863 420.864C633.023 420.864 629.471 420.192 626.207 418.848C622.991 417.504 620.159 415.632 617.711 413.232C615.263 410.832 613.367 408.048 612.023 404.88C610.679 401.664 610.007 398.208 610.007 394.512C610.007 390.768 610.679 387.312 612.023 384.144C613.367 380.976 615.239 378.216 617.639 375.864C620.039 373.464 622.847 371.616 626.063 370.32C629.327 368.976 632.879 368.304 636.719 368.304C640.511 368.304 644.015 368.976 647.231 370.32C650.495 371.616 653.327 373.464 655.727 375.864C658.175 378.216 660.071 381 661.415 384.216C662.759 387.384 663.431 390.84 663.431 394.584C663.431 398.28 662.759 401.736 661.415 404.952C660.071 408.12 658.199 410.904 655.799 413.304C653.399 415.656 650.567 417.504 647.303 418.848C644.087 420.192 640.607 420.864 636.863 420.864ZM636.719 410.568C639.743 410.568 642.383 409.896 644.639 408.552C646.943 407.208 648.719 405.336 649.967 402.936C651.215 400.488 651.839 397.68 651.839 394.512C651.839 392.112 651.479 389.952 650.759 388.032C650.039 386.064 649.007 384.384 647.663 382.992C646.319 381.552 644.711 380.472 642.839 379.752C641.015 378.984 638.975 378.6 636.719 378.6C633.695 378.6 631.031 379.272 628.727 380.616C626.471 381.912 624.719 383.76 623.471 386.16C622.223 388.512 621.599 391.296 621.599 394.512C621.599 396.912 621.959 399.096 622.679 401.064C623.399 403.032 624.407 404.736 625.703 406.176C627.047 407.568 628.655 408.648 630.527 409.416C632.399 410.184 634.463 410.568 636.719 410.568ZM670.607 420V369.168H678.527L681.911 379.32V420H670.607ZM705.671 420L675.719 381.624L678.527 369.168L708.479 407.544L705.671 420ZM705.671 420L702.647 409.848V369.168H713.951V420H705.671ZM738.043 420.792C733.867 420.792 730.267 420.12 727.243 418.776C724.267 417.384 721.531 415.296 719.035 412.512L726.379 405.24C728.011 407.112 729.811 408.576 731.779 409.632C733.795 410.64 736.123 411.144 738.763 411.144C741.163 411.144 743.011 410.712 744.307 409.848C745.651 408.984 746.323 407.784 746.323 406.248C746.323 404.856 745.891 403.728 745.027 402.864C744.163 402 743.011 401.256 741.571 400.632C740.179 400.008 738.619 399.408 736.891 398.832C735.211 398.256 733.531 397.608 731.851 396.888C730.171 396.12 728.611 395.184 727.171 394.08C725.779 392.928 724.651 391.512 723.787 389.832C722.923 388.104 722.491 385.944 722.491 383.352C722.491 380.232 723.235 377.544 724.723 375.288C726.259 373.032 728.371 371.328 731.059 370.176C733.747 368.976 736.843 368.376 740.347 368.376C743.899 368.376 747.139 369 750.067 370.248C753.043 371.496 755.491 373.2 757.411 375.36L750.067 382.632C748.531 381.048 746.971 379.872 745.387 379.104C743.851 378.336 742.099 377.952 740.131 377.952C738.163 377.952 736.603 378.336 735.451 379.104C734.299 379.824 733.723 380.88 733.723 382.272C733.723 383.568 734.155 384.624 735.019 385.44C735.883 386.208 737.011 386.88 738.403 387.456C739.843 388.032 741.403 388.608 743.083 389.184C744.811 389.76 746.515 390.432 748.195 391.2C749.875 391.968 751.411 392.952 752.803 394.152C754.243 395.304 755.395 396.792 756.259 398.616C757.123 400.392 757.555 402.6 757.555 405.24C757.555 410.088 755.827 413.904 752.371 416.688C748.915 419.424 744.139 420.792 738.043 420.792ZM794.306 420L774.722 369.168H786.818L801.722 410.28H796.754L811.874 369.168H823.826L804.026 420H794.306ZM851.949 420.864C848.109 420.864 844.557 420.192 841.293 418.848C838.077 417.504 835.245 415.632 832.797 413.232C830.349 410.832 828.453 408.048 827.109 404.88C825.765 401.664 825.093 398.208 825.093 394.512C825.093 390.768 825.765 387.312 827.109 384.144C828.453 380.976 830.325 378.216 832.725 375.864C835.125 373.464 837.933 371.616 841.149 370.32C844.413 368.976 847.965 368.304 851.805 368.304C855.597 368.304 859.101 368.976 862.317 370.32C865.581 371.616 868.413 373.464 870.813 375.864C873.261 378.216 875.157 381 876.501 384.216C877.845 387.384 878.517 390.84 878.517 394.584C878.517 398.28 877.845 401.736 876.501 404.952C875.157 408.12 873.285 410.904 870.885 413.304C868.485 415.656 865.653 417.504 862.389 418.848C859.173 420.192 855.693 420.864 851.949 420.864ZM851.805 410.568C854.829 410.568 857.469 409.896 859.725 408.552C862.029 407.208 863.805 405.336 865.053 402.936C866.301 400.488 866.925 397.68 866.925 394.512C866.925 392.112 866.565 389.952 865.845 388.032C865.125 386.064 864.093 384.384 862.749 382.992C861.405 381.552 859.797 380.472 857.925 379.752C856.101 378.984 854.061 378.6 851.805 378.6C848.781 378.6 846.117 379.272 843.813 380.616C841.557 381.912 839.805 383.76 838.557 386.16C837.309 388.512 836.685 391.296 836.685 394.512C836.685 396.912 837.045 399.096 837.765 401.064C838.485 403.032 839.493 404.736 840.789 406.176C842.133 407.568 843.741 408.648 845.613 409.416C847.485 410.184 849.549 410.568 851.805 410.568ZM895.477 420V369.888H906.781V420H895.477ZM879.565 379.032V369.168H922.693V379.032H879.565ZM937.645 399.048V390.696H948.373C950.629 390.696 952.357 390.12 953.557 388.968C954.805 387.816 955.429 386.256 955.429 384.288C955.429 382.464 954.829 380.952 953.629 379.752C952.429 378.552 950.701 377.952 948.445 377.952H937.645V369.168H949.741C953.101 369.168 956.053 369.816 958.597 371.112C961.141 372.36 963.133 374.112 964.573 376.368C966.013 378.624 966.733 381.216 966.733 384.144C966.733 387.12 966.013 389.736 964.573 391.992C963.133 394.2 961.117 395.928 958.525 397.176C955.933 398.424 952.885 399.048 949.381 399.048H937.645ZM929.005 420V369.168H940.309V420H929.005ZM956.653 420L940.813 398.112L951.181 395.304L970.045 420H956.653ZM974.99 420V369.168H986.294V420H974.99ZM983.63 420V410.208H1011.49V420H983.63ZM983.63 398.76V389.328H1008.97V398.76H983.63ZM983.63 378.888V369.168H1011.13V378.888H983.63ZM277.509 506L257.925 455.168H270.021L284.925 496.28H279.957L295.077 455.168H307.029L287.229 506H277.509ZM312.998 506V455.168H324.302V506H312.998ZM348.371 506.792C344.195 506.792 340.595 506.12 337.571 504.776C334.595 503.384 331.859 501.296 329.363 498.512L336.707 491.24C338.339 493.112 340.139 494.576 342.107 495.632C344.123 496.64 346.451 497.144 349.091 497.144C351.491 497.144 353.339 496.712 354.635 495.848C355.979 494.984 356.651 493.784 356.651 492.248C356.651 490.856 356.219 489.728 355.355 488.864C354.491 488 353.339 487.256 351.899 486.632C350.507 486.008 348.947 485.408 347.219 484.832C345.539 484.256 343.859 483.608 342.179 482.888C340.499 482.12 338.939 481.184 337.499 480.08C336.107 478.928 334.979 477.512 334.115 475.832C333.251 474.104 332.819 471.944 332.819 469.352C332.819 466.232 333.563 463.544 335.051 461.288C336.587 459.032 338.699 457.328 341.387 456.176C344.075 454.976 347.171 454.376 350.675 454.376C354.227 454.376 357.467 455 360.395 456.248C363.371 457.496 365.819 459.2 367.739 461.36L360.395 468.632C358.859 467.048 357.299 465.872 355.715 465.104C354.179 464.336 352.427 463.952 350.459 463.952C348.491 463.952 346.931 464.336 345.779 465.104C344.627 465.824 344.051 466.88 344.051 468.272C344.051 469.568 344.483 470.624 345.347 471.44C346.211 472.208 347.339 472.88 348.731 473.456C350.171 474.032 351.731 474.608 353.411 475.184C355.139 475.76 356.843 476.432 358.523 477.2C360.203 477.968 361.739 478.952 363.131 480.152C364.571 481.304 365.723 482.792 366.587 484.616C367.451 486.392 367.883 488.6 367.883 491.24C367.883 496.088 366.155 499.904 362.699 502.688C359.243 505.424 354.467 506.792 348.371 506.792ZM375.084 506V455.168H386.388V506H375.084ZM420.441 506.864C416.601 506.864 413.049 506.192 409.785 504.848C406.569 503.504 403.737 501.632 401.289 499.232C398.841 496.832 396.945 494.048 395.601 490.88C394.257 487.664 393.585 484.208 393.585 480.512C393.585 476.768 394.257 473.312 395.601 470.144C396.945 466.976 398.817 464.216 401.217 461.864C403.617 459.464 406.425 457.616 409.641 456.32C412.905 454.976 416.457 454.304 420.297 454.304C424.089 454.304 427.593 454.976 430.809 456.32C434.073 457.616 436.905 459.464 439.305 461.864C441.753 464.216 443.649 467 444.993 470.216C446.337 473.384 447.009 476.84 447.009 480.584C447.009 484.28 446.337 487.736 444.993 490.952C443.649 494.12 441.777 496.904 439.377 499.304C436.977 501.656 434.145 503.504 430.881 504.848C427.665 506.192 424.185 506.864 420.441 506.864ZM420.297 496.568C423.321 496.568 425.961 495.896 428.217 494.552C430.521 493.208 432.297 491.336 433.545 488.936C434.793 486.488 435.417 483.68 435.417 480.512C435.417 478.112 435.057 475.952 434.337 474.032C433.617 472.064 432.585 470.384 431.241 468.992C429.897 467.552 428.289 466.472 426.417 465.752C424.593 464.984 422.553 464.6 420.297 464.6C417.273 464.6 414.609 465.272 412.305 466.616C410.049 467.912 408.297 469.76 407.049 472.16C405.801 474.512 405.177 477.296 405.177 480.512C405.177 482.912 405.537 485.096 406.257 487.064C406.977 489.032 407.985 490.736 409.281 492.176C410.625 493.568 412.233 494.648 414.105 495.416C415.977 496.184 418.041 496.568 420.297 496.568ZM454.185 506V455.168H462.105L465.489 465.32V506H454.185ZM489.249 506L459.297 467.624L462.105 455.168L492.057 493.544L489.249 506ZM489.249 506L486.225 495.848V455.168H497.529V506H489.249ZM521.052 506V455.168H532.356V506H521.052ZM529.692 506V496.208H557.556V506H529.692ZM529.692 484.76V475.328H555.036V484.76H529.692ZM529.692 464.888V455.168H557.196V464.888H529.692ZM565.349 506V455.168H573.269L576.653 465.32V506H565.349ZM600.413 506L570.461 467.624L573.269 455.168L603.221 493.544L600.413 506ZM600.413 506L597.389 495.848V455.168H608.693V506H600.413ZM640.856 485.048V476.696H651.584C653.84 476.696 655.568 476.12 656.768 474.968C658.016 473.816 658.64 472.256 658.64 470.288C658.64 468.464 658.04 466.952 656.84 465.752C655.64 464.552 653.912 463.952 651.656 463.952H640.856V455.168H652.952C656.312 455.168 659.264 455.816 661.808 457.112C664.352 458.36 666.344 460.112 667.784 462.368C669.224 464.624 669.944 467.216 669.944 470.144C669.944 473.12 669.224 475.736 667.784 477.992C666.344 480.2 664.328 481.928 661.736 483.176C659.144 484.424 656.096 485.048 652.592 485.048H640.856ZM632.216 506V455.168H643.52V506H632.216ZM659.864 506L644.024 484.112L654.392 481.304L673.256 506H659.864ZM678.201 506V455.168H689.505V506H678.201ZM686.841 506V496.208H714.705V506H686.841ZM686.841 484.76V475.328H712.185V484.76H686.841ZM686.841 464.888V455.168H714.345V464.888H686.841ZM691.737 451.208L688.137 445.952L699.585 435.224L705.633 443.72L691.737 451.208ZM718.682 506L738.842 455.168H749.066L769.01 506H757.058L741.794 463.808H745.898L730.418 506H718.682ZM730.13 496.784V487.568H757.85V496.784H730.13ZM774.388 506V455.168H785.692V506H774.388ZM783.1 506V496.064H808.228V506H783.1ZM814.748 506V455.168H826.052V506H814.748ZM848.297 506V455.888H859.601V506H848.297ZM832.385 465.032V455.168H875.513V465.032H832.385ZM881.826 506V455.168H893.13V506H881.826ZM890.466 506V496.208H918.33V506H890.466ZM890.466 484.76V475.328H915.81V484.76H890.466ZM890.466 464.888V455.168H917.97V464.888H890.466ZM895.362 451.208L891.762 445.952L903.21 435.224L909.258 443.72L895.362 451.208Z" fill="white"/>
<g clip-path="url(#clip0_49_163)">
<path d="M403.583 62V226.569H361.896V94.451L403.583 62Z" fill="white"/>
<path d="M453.122 146.536V226.569H411.436V114.085L453.122 146.536Z" fill="white"/>
<path d="M356.435 149.155V226.583H339V162.72L356.435 149.155Z" fill="white"/>
<path d="M546.56 148.393V226.583H528.697V179.943L516.945 196.556H500.505L488.863 179.943V226.583H470.889V148.393H486.513L509.188 179.832L530.812 148.393H546.56Z" fill="white"/>
<path d="M642.556 165.117H586.269V179.125H628.094V195.725H586.269V209.969H642.556V226.583H568.295V148.393H642.556V165.117Z" fill="white"/>
<path d="M680.15 179.125H719.983V148.393H737.833V226.569H719.983V195.725H680.15V226.569H662.176V148.393H680.15V179.125Z" fill="white"/>
<path d="M808.098 148.393L839 226.583H819.616L812.094 207.392H779.547L772.15 226.583H753L784.013 148.393H808.098ZM785.658 190.778H805.983L795.641 165.824L785.658 190.778Z" fill="white"/>
<path d="M342.733 274.663V284.543H339V261.348H354.859C359.034 261.348 361.205 264.451 361.205 268.012C361.205 271.296 359.491 274.303 355.633 274.622H355.149L360.859 284.543H356.711L351.029 274.663H342.733ZM354.859 271.213C356.739 271.213 357.444 269.855 357.444 268.068C357.444 266.391 356.67 264.784 354.859 264.784H342.733V271.213H354.859Z" fill="white"/>
<path d="M398.522 281.12V284.543H377.229V261.348H398.522V264.77H380.963V271.199H394.028V274.663H380.963V281.12H398.522ZM387.101 250.983H390.171L386.936 255.625H384.945L387.101 250.983Z" fill="white"/>
<path d="M418.529 267.292V284.543H414.796V261.361H418.322L432.825 278.612V261.361H436.545V284.543H433.033L418.529 267.292Z" fill="white"/>
<path d="M463.658 260.904C470.875 260.904 475.023 266.696 475.023 272.987C475.023 279.277 470.875 285 463.658 285C456.441 285 452.362 279.167 452.362 272.987C452.362 266.807 456.468 260.904 463.658 260.904ZM463.658 281.3C468.4 281.3 471.083 277.185 471.083 272.987C471.083 268.788 468.428 264.535 463.658 264.535C458.888 264.535 456.371 268.719 456.371 272.945C456.371 277.171 458.957 281.287 463.658 281.287" fill="white"/>
<path d="M491.504 261.182L499.482 279.624L507.681 261.182H511.718L501.265 284.543H497.601L487.536 261.182H491.504Z" fill="white"/>
<path d="M540.712 284.557L538.057 278.543H527.121L524.549 284.557H520.567L530.646 261.195H534.31L544.763 284.557H540.726H540.712ZM536.854 275.162L532.499 265.421L528.42 275.162H536.854Z" fill="white"/>
<path d="M577.172 261.361V264.784H568.185V284.556H564.451V264.784H555.423V261.361H577.172Z" fill="white"/>
<path d="M596.307 261.361H592.574V284.556H596.307V261.361Z" fill="white"/>
<path d="M623.421 260.904C630.638 260.904 634.786 266.696 634.786 272.987C634.786 279.277 630.638 285 623.421 285C616.203 285 612.125 279.167 612.125 272.987C612.125 266.807 616.231 260.904 623.421 260.904ZM623.421 281.3C628.163 281.3 630.845 277.185 630.845 272.987C630.845 268.788 628.191 264.535 623.421 264.535C618.651 264.535 616.134 268.719 616.134 272.945C616.134 277.171 618.72 281.287 623.421 281.287" fill="white"/>
<path d="M654.364 267.292V284.543H650.631V261.361H654.157L668.647 278.612V261.361H672.38V284.543H668.868L654.364 267.292Z" fill="white"/>
<path d="M720.757 285C716.43 285 710.581 283.601 709.848 278.612L709.779 278.197H713.512L713.582 278.474C714.176 280.885 717.909 281.578 720.37 281.578C723.191 281.578 726.882 280.746 726.882 277.809C726.882 274.871 722.458 274.428 720.232 274.428C715.738 274.428 710.236 273.804 710.236 267.999C710.236 262.761 714.978 260.904 719.679 260.904C723.965 260.904 729.509 262.331 730.132 267.292L730.201 267.68H726.468L726.398 267.431C725.873 265.061 722.361 264.327 719.955 264.327C717.342 264.327 713.996 265.158 713.996 267.846C713.996 270.673 718.006 270.992 720.066 270.992C724.698 270.992 730.657 271.629 730.657 277.629C730.657 283.143 725.597 285 720.757 285Z" fill="white"/>
<path d="M768.527 284.557H764.49L761.835 278.557H750.899L748.327 284.557H744.345L754.425 261.195H758.089L768.541 284.557H768.527ZM760.619 275.148L756.291 265.477L752.185 275.148H760.619ZM756.899 250.983L759.029 255.625H757.107L753.858 250.983H756.886H756.899Z" fill="white"/>
<path d="M787.248 274.663V284.543H783.515V261.348H799.374C803.549 261.348 805.72 264.451 805.72 268.012C805.72 271.296 804.006 274.303 800.148 274.622H799.664L805.374 284.543H801.227L795.544 274.663H787.248ZM799.374 271.213C801.254 271.213 801.959 269.855 801.959 268.068C801.959 266.391 801.185 264.784 799.374 264.784H787.248V271.213H799.374Z" fill="white"/>
<path d="M821.745 261.361H825.478V281.134H839V284.556H821.745V261.361Z" fill="white"/>
<path d="M839 239.926H339V243.695H839V239.926Z" fill="white"/>
</g>
<defs>
<linearGradient id="paint0_linear_49_163" x1="600" y1="0" x2="600" y2="630" gradientUnits="userSpaceOnUse">
<stop stop-color="#8594B5"/>
<stop offset="0.778846" stop-color="#012269"/>
</linearGradient>
<clipPath id="clip0_49_163">
<rect width="500" height="223" fill="white" transform="translate(339 62)"/>
</clipPath>
</defs>
</svg>
