<svg width="100" height="15" viewBox="0 0 100 15" fill="none" xmlns="http://www.w3.org/2000/svg">
<g clip-path="url(#clip0_21_584)">
<path d="M7.89473 0L10.3342 4.61932L15.7895 5.36461L11.8421 8.95824L12.7737 14.0351L7.89473 11.6369L3.01579 14.0351L3.94736 8.95824L0 5.36461L5.45526 4.61932L7.89473 0Z" fill="#A6C0F5" stroke="black"/>
<path d="M50.0002 0L52.4397 4.61932L57.8949 5.36461L53.9476 8.95824L54.8792 14.0351L50.0002 11.6369L45.1213 14.0351L46.0528 8.95824L42.1055 5.36461L47.5607 4.61932L50.0002 0Z" fill="#A6C0F5" stroke="black"/>
<path d="M28.9475 0L31.3869 4.61932L36.8422 5.36461L32.8948 8.95824L33.8264 14.0351L28.9475 11.6369L24.0685 14.0351L25.0001 8.95824L21.0527 5.36461L26.508 4.61932L28.9475 0Z" fill="#A6C0F5" stroke="black"/>
<path d="M71.0519 0L73.4914 4.61932L78.9467 5.36461L74.9993 8.95824L75.9309 14.0351L71.0519 11.6369L66.173 14.0351L67.1046 8.95824L63.1572 5.36461L68.6125 4.61932L71.0519 0Z" fill="#A6C0F5" stroke="black"/>
<path d="M92.1048 0L94.5442 4.61932L99.9995 5.36461L96.0521 8.95824L96.9837 14.0351L92.1048 11.6369L87.2258 14.0351L88.1574 8.95824L84.21 5.36461L89.6653 4.61932L92.1048 0Z" fill="#A6C0F5" stroke="black"/>
</g>
<defs>
<clipPath id="clip0_21_584">
<rect width="100" height="15" fill="white"/>
</clipPath>
</defs>
</svg>
