<svg width="16" height="18" viewBox="0 0 16 18" fill="none" xmlns="http://www.w3.org/2000/svg">
<path d="M9 1C9 0.447715 8.55228 -2.41411e-08 8 0C7.44772 2.41411e-08 7 0.447715 7 1L9 1ZM7.29289 17.6943C7.68342 18.0848 8.31658 18.0848 8.70711 17.6943L15.0711 11.3303C15.4616 10.9398 15.4616 10.3066 15.0711 9.9161C14.6805 9.52557 14.0474 9.52557 13.6569 9.9161L8 15.573L2.34315 9.9161C1.95262 9.52557 1.31946 9.52557 0.928933 9.9161C0.538408 10.3066 0.538408 10.9398 0.928933 11.3303L7.29289 17.6943ZM7 1L7 16.9872L9 16.9872L9 1L7 1Z" fill="white"/>
</svg>
